<svg width="550" height="506" viewBox="0 0 550 506" fill="none" xmlns="http://www.w3.org/2000/svg">
<path d="M381.649 122.42C343.55 116.34 300.163 113.096 254.978 113.096C213.626 113.096 173.785 115.809 138.129 120.925C138.137 120.377 138.146 119.83 138.17 119.282C139.115 87.5014 152.455 57.35 175.338 35.2737C198.221 13.1975 228.832 0.947316 260.628 1.14156C292.424 1.3358 322.883 13.959 345.494 36.3132C368.106 58.6674 381.076 88.9788 381.633 120.77C381.641 121.325 381.649 121.873 381.649 122.42Z" fill="#4B5EAA"/>
<g opacity="0.1">
<path opacity="0.1" d="M275.858 1.09614C258.947 -1.188 241.745 0.106583 225.366 4.89597C208.987 9.68534 193.798 17.8627 180.782 28.898C167.766 39.9332 157.213 53.5802 149.809 68.9544C142.405 84.3289 138.314 101.087 137.802 118.143C137.777 118.691 137.769 119.238 137.761 119.786C148.354 118.266 159.323 116.964 170.585 115.876C171.963 87.4613 183.245 60.4247 202.474 39.4586C221.704 18.4927 247.667 4.92009 275.858 1.09614Z" fill="white"/>
</g>
<path d="M434.917 132.08C417.379 127.325 399.59 123.55 381.633 120.77C352.201 116.209 322.529 113.358 292.767 112.23C280.369 111.723 267.743 111.462 254.978 111.462C244.86 111.462 234.825 111.625 224.928 111.952C195.896 112.81 166.934 115.257 138.17 119.282C116.878 122.215 95.7915 126.489 75.0386 132.08C26.65 145.457 3.05176e-05 163.387 3.05176e-05 182.559C3.05176e-05 201.73 26.65 219.66 75.0386 233.037C109.068 242.451 151.025 248.866 196.741 251.808C215.611 253.034 235.119 253.655 254.978 253.655C274.902 253.655 294.475 253.026 313.402 251.8C355.007 249.112 393.499 243.546 425.715 235.456C425.886 235.407 426.05 235.366 426.221 235.325C428.395 234.786 430.536 234.222 432.653 233.658C433.413 233.446 434.165 233.242 434.917 233.037C434.959 233.02 435.003 233.006 435.048 232.996C435.767 232.8 436.478 232.596 437.189 232.4C438.611 231.991 440.016 231.591 441.397 231.174C441.463 231.158 441.52 231.141 441.577 231.125C442.779 230.765 443.955 230.406 445.124 230.046C446.08 229.744 447.028 229.45 447.968 229.147C448.655 228.927 449.333 228.706 450.003 228.485C450.493 228.322 450.975 228.167 451.449 228.003C452.095 227.791 452.741 227.57 453.378 227.35C453.648 227.26 453.918 227.17 454.179 227.072C454.792 226.867 455.389 226.655 455.985 226.442C456.631 226.214 457.276 225.977 457.914 225.748C458.445 225.56 458.976 225.364 459.499 225.168C459.941 224.996 460.374 224.833 460.815 224.669C462.016 224.22 463.193 223.754 464.354 223.296C464.934 223.059 465.514 222.83 466.086 222.593C466.65 222.365 467.222 222.128 467.778 221.891C468.693 221.506 469.592 221.122 470.475 220.738C470.9 220.542 471.333 220.354 471.75 220.174C472.068 220.027 472.379 219.888 472.698 219.741C472.926 219.643 473.155 219.537 473.376 219.431C474.201 219.055 475.019 218.671 475.819 218.287C478.892 216.816 481.761 215.312 484.425 213.776C501.137 204.206 509.955 193.591 509.955 182.559C509.955 163.387 483.305 145.457 434.917 132.08ZM434.476 231.468C400.405 240.891 358.334 247.306 312.495 250.223C293.854 251.408 274.583 252.021 254.978 252.021C235.438 252.021 216.233 251.416 197.649 250.231C151.736 247.322 109.6 240.907 75.4799 231.468C27.8595 218.295 1.6345 200.929 1.6345 182.559C1.63717 180.936 1.84035 179.318 2.23945 177.745C6.40703 161.172 32.0438 145.662 75.4799 133.649C96.0759 128.101 117 123.851 138.129 120.925C167.066 116.877 196.204 114.422 225.41 113.57C235.152 113.251 245.007 113.094 254.978 113.096C267.571 113.096 280.026 113.35 292.268 113.84C322.204 114.958 352.048 117.823 381.649 122.42C399.451 125.188 417.087 128.937 434.476 133.649C477.903 145.662 503.532 161.164 507.708 177.729C508.113 179.307 508.319 180.929 508.321 182.559C508.321 200.929 482.096 218.295 434.476 231.468Z" fill="#3F3D56"/>
<path d="M509.49 183.302C509.49 194.22 500.492 204.549 484.425 213.776C481.753 215.312 478.876 216.816 475.819 218.287C475.019 218.671 474.201 219.055 473.376 219.431C473.155 219.537 472.926 219.643 472.698 219.741C472.379 219.888 472.068 220.027 471.75 220.174C471.333 220.354 470.9 220.542 470.475 220.738C469.592 221.122 468.693 221.506 467.778 221.891C467.222 222.128 466.65 222.365 466.086 222.593C465.514 222.83 464.934 223.059 464.354 223.296C463.193 223.754 462.016 224.22 460.815 224.669C460.374 224.833 459.941 224.996 459.499 225.168C458.976 225.364 458.445 225.56 457.914 225.748C457.276 225.977 456.631 226.214 455.985 226.442C455.389 226.655 454.792 226.867 454.179 227.072C453.918 227.17 453.648 227.26 453.378 227.35C452.741 227.57 452.095 227.791 451.449 228.003C450.975 228.167 450.493 228.322 450.003 228.485C449.333 228.706 448.655 228.927 447.968 229.147C447.028 229.45 446.08 229.744 445.124 230.046C443.955 230.406 442.779 230.765 441.577 231.125C441.52 231.141 441.463 231.158 441.397 231.174C440.016 231.591 438.611 231.991 437.189 232.4C436.478 232.596 435.767 232.8 435.048 232.996C435.003 233.006 434.959 233.02 434.917 233.037C434.165 233.242 433.413 233.446 432.653 233.658C430.545 234.214 428.395 234.778 426.221 235.325C426.05 235.366 425.886 235.407 425.715 235.456C394.374 243.285 355.923 248.989 313.369 251.743C294.728 252.944 275.294 253.582 255.329 253.582C235.184 253.582 215.587 252.936 196.799 251.71C84.6412 244.396 1.16876 216.546 1.16876 183.302C1.17759 181.28 1.48593 179.269 2.08376 177.337C2.13284 177.476 2.18191 177.606 2.23938 177.745C13.9009 208.374 96.6627 233.127 204.048 239.166C220.499 240.098 237.538 240.58 254.978 240.58C272.491 240.58 289.596 240.09 306.112 239.158C413.407 233.094 496.087 208.333 507.708 177.729C507.904 177.239 508.076 176.748 508.223 176.258C509.052 178.514 509.48 180.898 509.49 183.302Z" fill="#3F3D56"/>
<path d="M74.9155 174.506C61.3145 174.506 46.8592 171.579 46.8592 166.156C46.8592 160.733 61.3145 157.807 74.9155 157.807C88.5165 157.807 102.972 160.733 102.972 166.156C102.972 171.579 88.5165 174.506 74.9155 174.506ZM74.9155 159.441C59.3447 159.441 48.4936 162.981 48.4936 166.156C48.4936 169.332 59.3447 172.871 74.9155 172.871C90.486 172.871 101.337 169.332 101.337 166.156C101.337 162.981 90.486 159.441 74.9155 159.441Z" fill="#3F3D56"/>
<path d="M132.939 212.914C119.339 212.914 104.883 209.988 104.883 204.565C104.883 199.142 119.339 196.216 132.939 196.216C146.54 196.216 160.996 199.142 160.996 204.565C160.996 209.988 146.54 212.914 132.939 212.914ZM132.939 197.85C117.368 197.85 106.518 201.389 106.518 204.565C106.518 207.741 117.368 211.28 132.939 211.28C148.51 211.28 159.361 207.741 159.361 204.565C159.361 201.389 148.51 197.85 132.939 197.85Z" fill="#3F3D56"/>
<path d="M434.499 174.506C420.899 174.506 406.443 171.579 406.443 166.156C406.443 160.733 420.899 157.807 434.499 157.807C448.1 157.807 462.556 160.733 462.556 166.156C462.556 171.579 448.1 174.506 434.499 174.506ZM434.499 159.441C418.928 159.441 408.078 162.981 408.078 166.156C408.078 169.332 418.928 172.871 434.499 172.871C450.07 172.871 460.921 169.332 460.921 166.156C460.921 162.981 450.07 159.441 434.499 159.441Z" fill="#3F3D56"/>
<path d="M376.475 212.914C362.875 212.914 348.42 209.988 348.42 204.565C348.42 199.142 362.875 196.216 376.475 196.216C390.077 196.216 404.532 199.142 404.532 204.565C404.532 209.988 390.077 212.914 376.475 212.914ZM376.475 197.85C360.905 197.85 350.054 201.389 350.054 204.565C350.054 207.741 360.905 211.28 376.475 211.28C392.046 211.28 402.897 207.741 402.897 204.565C402.897 201.389 392.046 197.85 376.475 197.85Z" fill="#3F3D56"/>
<path d="M254.707 230.893C241.107 230.893 226.651 227.966 226.651 222.544C226.651 217.121 241.107 214.194 254.707 214.194C268.308 214.194 282.764 217.121 282.764 222.544C282.764 227.966 268.308 230.893 254.707 230.893ZM254.707 215.829C239.136 215.829 228.286 219.368 228.286 222.544C228.286 225.719 239.136 229.258 254.707 229.258C270.278 229.258 281.129 225.719 281.129 222.544C281.129 219.368 270.278 215.829 254.707 215.829Z" fill="#3F3D56"/>
<path d="M275.391 402.65C294.353 402.65 309.724 387.279 309.724 368.317C309.724 349.356 294.353 333.985 275.391 333.985C256.428 333.985 241.057 349.356 241.057 368.317C241.057 387.279 256.428 402.65 275.391 402.65Z" fill="#2F2E41"/>
<path d="M262.334 390.875L245.624 399.242L250.295 408.568L267.005 400.2L262.334 390.875Z" fill="#2F2E41"/>
<path d="M252.498 407.621C253.489 406.119 251.044 402.758 247.036 400.116C243.028 397.473 238.975 396.55 237.985 398.053C236.994 399.556 239.44 402.916 243.447 405.558C247.455 408.201 251.507 409.124 252.498 407.621Z" fill="#2F2E41"/>
<path d="M288.447 390.875L283.776 400.2L300.486 408.569L305.157 399.242L288.447 390.875Z" fill="#2F2E41"/>
<path d="M307.334 405.558C311.342 402.916 313.788 399.556 312.796 398.053C311.806 396.55 307.753 397.473 303.746 400.115C299.738 402.758 297.292 406.119 298.283 407.621C299.274 409.124 303.326 408.201 307.334 405.558Z" fill="#2F2E41"/>
<path d="M272.987 371.653C279.468 371.653 284.721 366.4 284.721 359.92C284.721 353.439 279.468 348.185 272.987 348.185C266.506 348.185 261.252 353.439 261.252 359.92C261.252 366.4 266.506 371.653 272.987 371.653Z" fill="white"/>
<path d="M275.841 357.67C277.363 356.149 277.354 353.674 275.821 352.142C274.29 350.61 271.814 350.602 270.294 352.123C268.773 353.644 268.781 356.119 270.313 357.65C271.845 359.183 274.32 359.191 275.841 357.67Z" fill="#3F3D56"/>
<path d="M302.475 330.967C302.992 318.257 292.037 307.491 278.007 306.921C263.976 306.351 252.184 316.193 251.668 328.904C251.151 341.614 260.904 344.501 274.935 345.072C288.964 345.641 301.959 343.678 302.475 330.967Z" fill="#4B5EAA"/>
<path d="M322.266 386.295C324.525 384.357 321.349 376.953 315.173 369.76C308.998 362.567 302.16 358.307 299.902 360.245C297.644 362.183 300.819 369.587 306.995 376.78C313.171 383.974 320.008 388.234 322.266 386.295Z" fill="#2F2E41"/>
<path d="M243.882 376.78C250.058 369.587 253.234 362.183 250.975 360.245C248.717 358.307 241.88 362.567 235.704 369.76C229.528 376.953 226.352 384.357 228.611 386.295C230.869 388.234 237.706 383.974 243.882 376.78Z" fill="#2F2E41"/>
<path d="M284.821 381.848C285.192 383.888 284.737 385.994 283.556 387.7C282.376 389.406 280.566 390.573 278.525 390.945C276.484 391.317 274.379 390.861 272.673 389.681C270.966 388.501 269.799 386.69 269.427 384.65L269.425 384.634C268.655 380.383 271.942 378.879 276.193 378.109C280.445 377.34 284.051 377.597 284.821 381.848Z" fill="white"/>
<path d="M217.385 404.838C216.952 404.838 216.536 404.666 216.229 404.359C215.923 404.053 215.75 403.637 215.75 403.204V306.774C215.75 306.34 215.923 305.925 216.229 305.618C216.536 305.312 216.952 305.139 217.385 305.139C217.818 305.139 218.234 305.312 218.54 305.618C218.847 305.925 219.019 306.34 219.019 306.774V403.204C219.019 403.637 218.847 404.053 218.54 404.359C218.234 404.666 217.818 404.838 217.385 404.838Z" fill="#CCCCCC"/>
<path d="M192.868 491.462C192.435 491.462 192.019 491.289 191.712 490.983C191.406 490.676 191.233 490.26 191.233 489.827V419.548C191.233 419.115 191.406 418.699 191.712 418.392C192.019 418.086 192.435 417.913 192.868 417.913C193.301 417.913 193.717 418.086 194.023 418.392C194.33 418.699 194.502 419.115 194.502 419.548V489.827C194.502 490.26 194.33 490.676 194.023 490.983C193.717 491.289 193.301 491.462 192.868 491.462Z" fill="#CCCCCC"/>
<path d="M255.795 433.44C255.362 433.44 254.946 433.268 254.639 432.961C254.333 432.655 254.16 432.239 254.16 431.806V335.376C254.16 334.943 254.333 334.527 254.639 334.22C254.946 333.914 255.362 333.741 255.795 333.741C256.228 333.741 256.644 333.914 256.951 334.22C257.257 334.527 257.429 334.943 257.429 335.376V431.806C257.429 432.239 257.257 432.655 256.951 432.961C256.644 433.268 256.228 433.44 255.795 433.44Z" fill="#CCCCCC"/>
<path d="M232.095 502.903C231.662 502.903 231.246 502.73 230.94 502.424C230.633 502.117 230.461 501.701 230.461 501.268V462.042C230.461 461.609 230.633 461.193 230.94 460.887C231.246 460.58 231.662 460.408 232.095 460.408C232.528 460.408 232.944 460.58 233.251 460.887C233.557 461.193 233.73 461.609 233.73 462.042V501.268C233.73 501.701 233.557 502.117 233.251 502.424C232.944 502.73 232.528 502.903 232.095 502.903Z" fill="#CCCCCC"/>
<path d="M265.602 301.87C265.169 301.87 264.753 301.698 264.446 301.392C264.14 301.085 263.967 300.669 263.967 300.236V261.01C263.967 260.577 264.14 260.161 264.446 259.855C264.753 259.548 265.169 259.376 265.602 259.376C266.035 259.376 266.451 259.548 266.757 259.855C267.064 260.161 267.236 260.577 267.236 261.01V300.236C267.236 300.669 267.064 301.085 266.757 301.392C266.451 301.698 266.035 301.87 265.602 301.87Z" fill="#CCCCCC"/>
<path d="M183.878 319.032C183.445 319.032 183.029 318.859 182.723 318.553C182.416 318.246 182.244 317.83 182.244 317.397V278.171C182.244 277.738 182.416 277.322 182.723 277.016C183.029 276.709 183.445 276.537 183.878 276.537C184.311 276.537 184.727 276.709 185.034 277.016C185.34 277.322 185.513 277.738 185.513 278.171V317.397C185.513 317.83 185.34 318.246 185.034 318.553C184.727 318.859 184.311 319.032 183.878 319.032Z" fill="#CCCCCC"/>
<path d="M326.077 323.118C325.644 323.118 325.228 322.945 324.922 322.639C324.615 322.332 324.443 321.916 324.443 321.483V282.257C324.443 281.824 324.615 281.408 324.922 281.102C325.228 280.795 325.644 280.623 326.077 280.623C326.51 280.623 326.926 280.795 327.233 281.102C327.539 281.408 327.712 281.824 327.712 282.257V321.483C327.712 321.916 327.539 322.332 327.233 322.639C326.926 322.945 326.51 323.118 326.077 323.118Z" fill="#CCCCCC"/>
<path d="M322.808 445.698C322.375 445.698 321.959 445.526 321.653 445.219C321.346 444.913 321.174 444.497 321.174 444.064V396.666C321.174 396.233 321.346 395.817 321.653 395.511C321.959 395.204 322.375 395.032 322.808 395.032C323.241 395.032 323.657 395.204 323.964 395.511C324.27 395.817 324.443 396.233 324.443 396.666V444.064C324.443 444.497 324.27 444.913 323.964 445.219C323.657 445.526 323.241 445.698 322.808 445.698Z" fill="#CCCCCC"/>
<path d="M290.119 487.376C289.686 487.376 289.27 487.203 288.963 486.897C288.657 486.59 288.484 486.174 288.484 485.741V415.462C288.484 415.029 288.657 414.613 288.963 414.306C289.27 414 289.686 413.827 290.119 413.827C290.552 413.827 290.968 414 291.274 414.306C291.581 414.613 291.753 415.029 291.753 415.462V485.741C291.753 486.174 291.581 486.59 291.274 486.897C290.968 487.203 290.552 487.376 290.119 487.376Z" fill="#CCCCCC"/>
<path d="M296.657 367.247C296.224 367.247 295.808 367.074 295.501 366.768C295.195 366.461 295.022 366.045 295.022 365.612V269.182C295.022 268.749 295.195 268.333 295.501 268.027C295.808 267.72 296.224 267.548 296.657 267.548C297.09 267.548 297.506 267.72 297.812 268.027C298.119 268.333 298.291 268.749 298.291 269.182V365.612C298.291 366.045 298.119 366.461 297.812 366.768C297.506 367.074 297.09 367.247 296.657 367.247Z" fill="#CCCCCC"/>
<path d="M497.037 474.38C499.377 472.421 496.215 464.792 489.976 457.341C483.737 449.889 476.782 445.436 474.443 447.395C472.104 449.353 475.265 456.982 481.504 464.434C487.744 471.886 494.698 476.339 497.037 474.38Z" fill="#2F2E41"/>
<path d="M481.695 465.905C487.842 447.466 477.876 427.534 459.435 421.387C440.994 415.24 421.062 425.206 414.915 443.646C408.768 462.087 418.734 482.018 437.175 488.165C455.616 494.311 475.548 484.346 481.695 465.905Z" fill="#2F2E41"/>
<path d="M463.202 482.397H452.509V501.554H463.202V482.397Z" fill="#2F2E41"/>
<path d="M441.818 482.397H431.125V501.554H441.818V482.397Z" fill="#2F2E41"/>
<path d="M454.292 505.118C459.213 505.118 463.202 503.622 463.202 501.777C463.202 499.931 459.213 498.436 454.292 498.436C449.37 498.436 445.381 499.931 445.381 501.777C445.381 503.622 449.37 505.118 454.292 505.118Z" fill="#2F2E41"/>
<path d="M432.906 504.673C437.828 504.673 441.818 503.176 441.818 501.331C441.818 499.486 437.828 497.99 432.906 497.99C427.986 497.99 423.996 499.486 423.996 501.331C423.996 503.176 427.986 504.673 432.906 504.673Z" fill="#2F2E41"/>
<path d="M437.253 410.535C440.396 397.879 454.269 390.432 468.239 393.9C482.209 397.369 490.986 410.441 487.843 423.097C484.7 435.753 474.274 435.794 460.304 432.325C446.334 428.856 434.111 423.192 437.253 410.535Z" fill="#CCCCCC"/>
<path d="M424.562 445.987C425.87 443.23 419.811 437.619 411.03 433.454C402.249 429.29 394.07 428.148 392.762 430.905C391.455 433.661 397.514 439.272 406.295 443.437C415.077 447.602 423.255 448.743 424.562 445.987Z" fill="#2F2E41"/>
<path d="M443.043 459.083C449.524 459.083 454.777 453.83 454.777 447.35C454.777 440.869 449.524 435.616 443.043 435.616C436.563 435.616 431.309 440.869 431.309 447.35C431.309 453.83 436.563 459.083 443.043 459.083Z" fill="white"/>
<path d="M438.22 447.055C440.381 447.055 442.131 445.304 442.131 443.144C442.131 440.984 440.381 439.233 438.22 439.233C436.06 439.233 434.309 440.984 434.309 443.144C434.309 445.304 436.06 447.055 438.22 447.055Z" fill="#3F3D56"/>
<path d="M442.942 476.752C445.65 476.752 447.845 474.557 447.845 471.849C447.845 469.141 445.65 466.946 442.942 466.946C440.234 466.946 438.039 469.141 438.039 471.849C438.039 474.557 440.234 476.752 442.942 476.752Z" fill="white"/>
<path d="M548.799 505.354H355.932C355.715 505.354 355.508 505.268 355.354 505.115C355.201 504.962 355.115 504.754 355.115 504.537C355.115 504.32 355.201 504.112 355.354 503.959C355.508 503.806 355.715 503.72 355.932 503.72H548.799C549.017 503.72 549.224 503.806 549.378 503.959C549.531 504.112 549.617 504.32 549.617 504.537C549.617 504.754 549.531 504.962 549.378 505.115C549.224 505.268 549.017 505.354 548.799 505.354Z" fill="#3F3D56"/>
</svg>
