<svg width="563" height="569" viewBox="0 0 563 569" fill="none" xmlns="http://www.w3.org/2000/svg">
<g opacity="0.41">
<path opacity="0.41" d="M550.726 1.43652C518.328 23.2424 484.997 48.1634 457.272 76.1995C447.927 85.8564 460.387 104.236 472.225 95.8248C503.999 72.4614 534.216 43.8022 560.694 14.8315C566.613 7.97827 558.825 -4.17071 550.726 1.43652Z" fill="url(#paint0_linear_3_1744)"/>
</g>
<g opacity="0.45">
<path opacity="0.45" d="M36.9614 567.691C70.2932 547.132 104.248 522.834 132.596 496.044C142.253 486.698 130.104 468.007 118.266 476.107C85.8688 498.224 54.7176 526.26 27.3045 554.296C21.0742 560.527 28.5505 572.676 36.9614 567.691Z" fill="#EDC483"/>
</g>
<g opacity="0.23">
<g opacity="0.23">
<path opacity="0.23" d="M56.5867 395.737C75.9004 361.47 125.742 347.452 160.32 364.274C190.537 379.226 215.147 412.87 252.528 406.016C293.959 398.54 307.977 354.928 335.702 329.696C355.639 311.628 383.052 308.513 408.284 315.678C431.336 322.22 448.781 337.172 469.652 347.764C477.752 351.813 486.785 341.533 479.621 334.68C448.469 304.775 394.889 284.215 352.524 298.856C332.275 306.021 317.946 320.974 305.485 337.795C290.844 357.732 275.58 384.834 249.101 389.506C225.738 393.556 206.113 375.8 188.668 363.339C173.404 352.748 157.517 344.025 138.826 342.156C100.198 338.418 67.8011 358.355 50.3564 391.687C48.1758 396.36 54.4061 400.098 56.5867 395.737Z" fill="#8AA9FC"/>
</g>
</g>
<g opacity="0.23">
<path opacity="0.23" d="M14.2658 27.6731C9.28159 52.2826 4.92042 77.2036 1.18226 102.125C-0.0637855 109.289 5.23193 114.274 12.3967 113.339C35.7602 110.224 59.1236 107.109 82.1755 101.502C87.4712 100.256 89.6518 93.7138 87.1597 89.0411C73.7647 65.3662 56.6315 30.4768 30.1529 19.5738C22.3651 16.4587 16.1349 26.7386 19.873 33.2804C26.4148 44.4948 38.2523 52.2826 46.6631 61.9395C56.32 72.8425 65.9769 84.6799 72.8302 97.4519C75.3223 93.0908 77.8144 89.0411 79.9949 84.6799C55.697 86.8605 31.7105 91.2217 7.41252 95.5829C11.1507 98.3865 14.8888 101.502 18.9385 104.305C21.4306 79.6957 23.9227 54.4632 25.4802 29.2307C26.1033 23.0005 15.5118 21.4429 14.2658 27.6731Z" fill="#EDC483"/>
</g>
<g opacity="0.43">
<path opacity="0.43" d="M6.73003 453.406C-11.1455 407.44 7.75148 350.239 49.6312 324.192C75.1676 308.87 105.811 304.273 132.88 292.527C174.76 274.14 206.425 238.9 244.219 212.853C272.309 193.445 303.974 179.145 337.682 174.038C371.39 168.93 407.141 174.038 436.253 191.402C467.407 209.789 489.879 240.943 500.604 275.672C511.33 309.891 510.819 347.685 502.137 382.415C499.072 395.694 494.476 408.973 486.304 420.719C478.643 431.955 466.896 441.148 453.107 443.702" fill="#EDE6F5"/>
</g>
<path d="M479.154 438.595C479.154 438.595 9.28367 449.32 6.2193 450.852C6.2193 450.852 45.5454 514.183 164.545 510.608C284.566 507.543 484.261 501.925 479.154 438.595Z" fill="#EDE6F5"/>
<path d="M225.832 226.132C212.554 230.728 217.15 215.917 216.639 209.278C216.129 202.638 216.639 195.999 214.086 190.381C212.043 185.784 207.957 181.698 207.957 176.591C207.957 172.505 210.511 169.441 211.532 165.355C213.064 160.248 211.532 154.63 212.554 149.523C214.086 139.308 224.811 131.647 235.026 132.669C240.133 133.179 245.24 135.733 250.347 135.222C255.965 134.201 260.051 130.115 265.159 127.051C271.798 122.965 280.991 122.454 288.141 126.029C295.292 129.604 299.888 137.776 298.867 145.437C297.845 153.098 291.206 160.248 283.034 160.759C278.437 161.269 273.841 159.226 269.244 158.205C264.648 157.184 259.541 156.673 255.965 159.226C251.369 162.291 249.326 169.952 243.197 170.462C240.133 170.973 237.579 168.93 234.515 167.398C231.451 166.377 227.875 165.866 226.343 168.42C224.811 170.462 226.343 173.527 226.343 176.08C226.854 180.677 225.832 185.274 221.747 187.316C220.214 200.085 223.79 212.342 227.875 224.6" fill="#552E3B"/>
<path d="M117.047 448.299L81.2964 248.093H196.21L238.601 444.213L117.047 448.299Z" fill="#B8ABD6"/>
<path d="M125.73 447.788L87.9358 248.093H202.85L245.751 444.213L125.73 447.788Z" fill="#DDD2F3"/>
<path opacity="0.44" d="M204.382 248.093C204.382 248.093 164.545 265.458 153.309 284.355C143.605 300.698 97.6397 396.204 114.494 409.483C131.348 422.762 244.729 418.676 244.729 418.676L251.88 388.033L163.013 372.711L217.661 324.702L204.382 248.093Z" fill="#B8ABD6"/>
<path d="M303.974 296.612C303.463 294.569 298.867 252.179 254.433 253.2C212.554 254.222 189.571 256.776 174.76 288.951L190.082 350.239L193.146 445.234L313.678 441.148L303.974 296.612Z" fill="#4B5EAA"/>
<path d="M192.635 265.969C192.635 265.969 175.781 275.162 164.545 294.059C154.841 310.402 108.876 405.908 125.73 419.187C142.584 432.466 255.965 428.38 255.965 428.38L263.116 397.737L174.249 382.415L189.571 350.75L192.635 265.969Z" fill="#4B5EAA"/>
<path d="M282.013 260.861C282.013 260.861 324.403 289.462 368.836 363.518L350.961 407.44L303.974 348.196L282.013 260.861Z" fill="#4B5EAA"/>
<path d="M236.558 451.363H334.107L338.703 443.191L236.558 446.256V451.363Z" fill="#B8ABD6"/>
<path d="M261.583 408.973H301.42C301.42 408.973 325.935 430.934 321.849 431.955C317.764 432.977 302.442 418.166 302.442 418.166L313.678 443.702C313.678 443.702 296.313 441.148 290.695 436.552C285.077 431.955 279.97 427.87 279.97 427.87L256.987 429.912L261.583 408.973Z" fill="#F9C8C7"/>
<path d="M192.124 266.99C192.124 266.99 192.635 266.99 193.146 266.99C193.657 266.99 194.167 266.99 194.678 266.99C195.189 266.99 195.7 266.99 196.21 266.99C198.764 267.501 202.85 268.522 206.425 272.097C207.957 273.63 210 275.672 211.021 278.226C212.554 280.78 213.064 283.844 213.575 286.908C214.596 293.037 213.064 300.187 211.021 307.338C206.936 321.127 201.318 333.385 196.721 341.556C194.167 345.642 192.124 348.707 191.103 351.26C190.592 352.282 189.571 353.303 189.571 353.814C189.06 354.325 189.06 354.835 189.06 354.835C189.06 354.835 189.06 354.325 189.571 353.814C190.082 353.303 190.592 352.282 191.103 351.26C192.635 349.217 194.678 345.642 196.721 341.556C201.318 333.385 206.936 321.127 211.021 307.338C213.064 300.187 214.086 293.548 213.575 287.419C213.064 281.291 210 276.183 206.425 273.119C202.85 270.054 199.275 268.522 196.721 268.012C193.657 266.479 192.124 266.99 192.124 266.99Z" fill="#452775"/>
<path d="M297.845 292.016C297.845 292.016 297.845 292.527 297.845 293.037C297.845 293.548 297.845 294.569 298.356 295.591C298.867 297.634 299.377 300.698 299.888 304.784C300.91 312.445 302.952 322.66 304.485 334.406C306.017 346.153 307.549 356.368 308.57 364.029C309.081 367.604 309.081 371.179 309.592 373.222C309.592 374.243 309.592 375.264 309.592 375.775C309.592 376.286 309.592 376.797 309.592 376.797C309.592 376.797 309.592 376.286 309.592 375.775C309.592 375.264 309.592 374.243 309.592 373.222C309.592 371.179 309.081 368.114 308.57 364.029C307.549 356.368 306.017 346.153 304.485 334.406C302.952 322.66 300.91 312.445 299.888 304.784C299.377 301.209 298.867 298.145 298.867 295.591C298.867 294.569 298.867 293.548 298.356 293.037C297.845 292.016 297.845 292.016 297.845 292.016Z" fill="#452775"/>
<path opacity="0.14" d="M160.459 475.367C172.87 475.367 182.931 473.538 182.931 471.281C182.931 469.025 172.87 467.196 160.459 467.196C148.048 467.196 137.987 469.025 137.987 471.281C137.987 473.538 148.048 475.367 160.459 475.367Z" fill="#B8ABD6"/>
<path d="M168.631 429.912C168.631 429.912 149.223 422.762 131.348 429.912V433.998C131.348 433.998 124.708 433.488 124.708 439.616C124.708 445.745 126.751 454.427 134.923 457.492L138.498 468.728C138.498 468.728 154.331 472.814 161.991 468.728C161.991 468.728 164.034 462.599 165.567 456.47C167.099 452.895 168.631 429.912 168.631 429.912ZM127.773 442.17C127.262 437.063 131.858 438.595 131.858 438.595L133.901 453.406C133.901 453.406 128.794 451.874 127.773 442.17Z" fill="#FAC28C"/>
<path d="M166.077 430.423C166.077 430.423 149.223 426.337 134.412 430.423C133.901 430.423 149.223 443.702 166.077 430.423Z" fill="#DB9D6A"/>
<path d="M167.609 447.788C167.609 447.788 167.099 448.299 166.588 448.299C165.567 448.809 164.545 449.32 163.013 449.32C159.949 450.342 155.863 451.363 150.755 451.363C145.648 451.363 141.562 450.852 138.498 450.342C136.966 449.831 135.944 449.831 134.923 449.32C133.901 448.809 133.391 448.809 133.391 448.809C133.391 448.809 135.434 449.32 138.498 449.831C141.562 450.342 146.159 450.852 150.755 450.852C155.352 450.852 159.949 449.831 163.013 449.32C165.567 448.299 167.609 447.788 167.609 447.788Z" fill="#B28560"/>
<path d="M166.588 444.213C166.588 444.213 166.077 444.724 165.567 444.724C164.545 445.234 163.524 445.745 161.991 446.256C158.927 447.277 154.841 448.299 149.734 448.809C145.137 448.809 140.541 448.299 137.476 447.277C135.944 446.766 134.923 446.256 133.901 446.256C132.88 445.745 132.88 445.745 132.88 445.745C132.88 445.745 134.923 446.256 137.987 447.277C141.052 447.788 145.137 448.809 150.245 448.299C154.841 448.299 159.438 447.277 161.991 446.256C165.056 444.724 166.588 444.213 166.588 444.213Z" fill="#B28560"/>
<g opacity="0.07">
<path opacity="0.07" d="M134.923 430.423C133.391 428.891 134.412 425.827 135.944 424.294C137.476 422.762 139.519 422.252 141.562 421.23C143.605 420.209 145.648 418.676 146.159 416.633C146.67 412.548 141.562 408.973 142.584 404.887C144.116 401.312 149.734 401.312 151.777 398.247C154.331 394.672 150.755 389.565 152.288 385.479C153.309 382.925 156.884 381.393 159.438 381.393C162.502 381.904 165.056 383.947 166.588 386.501C168.12 389.054 169.142 391.608 170.163 394.672C171.185 398.247 172.206 402.844 170.163 405.908C169.142 407.44 167.609 409.483 168.12 411.016C168.631 412.037 169.652 412.548 170.674 413.569C172.717 415.612 172.717 419.187 171.695 421.741C169.142 429.402 161.991 435.02 153.82 436.041C145.648 437.063 137.476 432.977 133.391 425.827" fill="#F9FAFD"/>
</g>
<path d="M286.32 303.1C287.943 300.793 289.072 298.791 288.842 298.629C288.611 298.467 287.108 300.205 285.485 302.512C283.862 304.819 282.733 306.82 282.963 306.982C283.194 307.145 284.697 305.406 286.32 303.1Z" fill="#A869C5"/>
<path d="M225.833 255.243C225.833 255.243 250.347 319.084 267.712 340.535C267.712 340.535 274.862 277.715 267.712 255.243C267.712 254.733 235.026 250.647 225.833 255.243Z" fill="#F9FAFD"/>
<path d="M221.747 151.566L220.214 189.359C220.214 189.359 208.468 189.359 208.468 200.085C208.468 213.364 221.236 211.321 221.236 211.321C221.236 211.321 218.682 236.857 253.923 238.9C294.781 241.454 286.098 177.102 284.566 146.969L221.747 151.566Z" fill="#F9C8C7"/>
<path d="M267.712 209.278L265.669 255.243C265.159 268.012 251.369 276.183 239.622 270.565H239.111C232.983 267.501 228.897 260.861 229.408 254.222C229.918 237.879 229.918 210.299 229.918 210.299L267.712 209.278Z" fill="#F9C8C7"/>
<path d="M267.712 340.535C267.712 340.535 267.201 340.535 266.691 340.024C266.18 339.514 265.159 339.003 264.648 337.981C262.605 335.938 260.051 333.385 256.476 329.81C252.901 326.235 249.326 322.149 244.729 318.063C242.687 316.02 240.133 313.466 237.579 310.913C235.536 308.359 233.493 304.784 232.983 301.209C232.472 298.145 232.983 295.08 234.004 292.527L234.515 293.037C232.983 294.059 231.45 294.059 229.918 294.059C228.386 293.548 226.854 292.527 226.343 291.505C224.811 288.951 224.3 285.887 224.3 283.333C223.79 278.226 223.79 273.119 223.79 269.033C223.79 264.947 223.279 261.883 223.279 259.84C223.279 258.818 223.279 257.797 223.279 257.286C223.279 256.776 223.279 256.265 223.279 256.265C223.279 256.265 223.279 256.776 223.279 257.286C223.279 257.797 223.279 258.818 223.279 259.84C223.279 261.883 223.79 265.458 223.79 269.033C224.3 273.119 224.3 277.715 224.811 283.333C224.811 285.887 225.322 288.951 226.854 291.505C227.875 292.527 228.897 293.548 230.429 294.059C231.961 294.569 233.493 294.569 234.515 293.548L236.047 292.016L235.026 293.548C233.493 296.102 233.493 298.655 234.004 301.72C234.515 305.295 236.558 308.359 238.601 310.913C240.644 313.466 243.197 316.02 245.751 318.063C250.347 322.66 254.433 326.745 257.498 330.32C260.562 333.896 263.626 336.449 265.159 338.492C266.18 339.514 266.691 340.024 267.201 340.535C267.712 340.024 267.712 340.535 267.712 340.535Z" fill="#452775"/>
<path d="M267.712 254.733C267.712 254.733 267.712 254.733 268.223 255.243C268.734 255.754 269.244 255.754 269.755 256.776C270.777 257.797 272.82 259.84 274.352 262.394C275.373 263.926 275.884 264.947 276.905 266.99C277.927 268.522 278.438 270.565 278.948 272.608C279.459 274.651 279.459 277.205 278.948 279.248C278.438 281.801 277.416 283.844 275.884 285.887V285.376C276.905 286.909 277.927 288.441 278.438 290.484C278.948 292.527 278.948 294.059 278.438 296.102C277.927 299.166 277.416 302.23 276.905 305.295C276.395 308.359 275.884 310.913 275.373 313.977C274.352 319.084 273.33 324.192 272.309 328.278C271.287 332.363 270.266 335.428 269.755 337.981C269.244 339.003 269.244 340.024 268.734 340.535C268.734 341.046 268.223 341.556 268.223 341.556C268.223 341.556 268.223 341.046 268.223 340.535C268.223 340.024 268.734 339.003 268.734 337.981C269.244 335.938 270.266 332.363 271.287 328.278C272.309 324.192 273.33 319.595 274.352 313.977C274.862 311.423 275.373 308.359 275.884 305.805C276.395 302.741 276.905 299.677 277.416 296.612C277.416 294.569 277.416 293.037 277.416 290.994C276.905 289.462 276.395 287.419 275.373 286.398C276.905 284.866 277.927 282.312 278.438 280.269C278.948 278.226 278.948 275.672 278.438 273.63C277.927 271.587 277.416 270.055 276.395 268.012C275.373 266.479 274.862 264.947 273.841 263.415C272.309 260.861 270.777 258.818 269.244 257.797C269.244 256.265 268.734 255.754 267.712 254.733Z" fill="#452775"/>
<path d="M268.968 374.92C270.26 393.775 271.535 409.044 271.816 409.025C272.097 409.006 271.279 393.705 269.987 374.85C268.696 355.995 267.421 340.726 267.14 340.745C266.858 340.764 267.677 356.065 268.968 374.92Z" fill="#452775"/>
<path d="M277.927 358.921C277.927 358.921 278.438 358.921 278.948 358.921C279.459 358.921 280.48 359.432 280.991 359.943C282.013 360.964 282.013 361.986 281.502 363.518C280.991 365.05 279.459 366.071 277.416 366.071C275.373 366.071 274.352 364.539 273.841 363.007C273.33 361.475 273.841 359.943 274.352 359.432C274.862 358.41 275.884 358.41 276.395 358.41C277.927 358.41 278.438 358.411 277.927 358.921C278.438 358.411 277.927 358.41 277.416 358.41C276.905 358.41 275.884 358.921 275.373 359.432C274.862 360.453 274.352 361.475 274.862 362.496C275.373 363.518 276.395 365.05 277.927 365.05C279.459 365.05 280.48 364.028 280.991 363.007C281.502 361.986 280.991 360.453 280.48 359.943C279.97 359.432 278.948 358.921 278.438 358.921H277.927Z" fill="#452775"/>
<path d="M279.97 385.99C279.97 385.99 280.48 385.99 280.991 385.99C281.502 385.99 282.523 386.501 283.034 387.011C284.056 388.033 284.056 389.054 283.545 390.586C283.034 392.119 281.502 393.14 279.459 393.14C277.416 393.14 276.395 391.608 275.884 390.076C275.373 388.543 275.884 387.011 276.395 386.501C276.905 385.479 277.927 385.479 278.438 385.479C279.97 385.479 280.48 385.479 279.97 385.99C280.48 385.479 279.97 385.479 279.459 385.479C278.948 385.479 277.927 385.99 277.416 386.501C276.905 387.522 276.395 388.544 276.905 389.565C277.416 390.586 278.438 392.119 279.97 392.119C281.502 392.119 282.523 391.097 283.034 390.076C283.545 389.054 283.034 387.522 282.523 387.011C282.013 386.501 280.991 385.99 280.48 385.99C280.48 385.99 279.97 385.99 279.97 385.99Z" fill="#452775"/>
<path d="M277.416 360.964C277.416 360.964 277.416 361.475 277.416 360.964C277.416 361.475 276.905 361.475 276.905 361.475C276.905 361.475 276.395 360.964 276.905 360.964H277.416Z" fill="#452775"/>
<path d="M279.459 363.518C279.741 363.518 279.97 363.289 279.97 363.007C279.97 362.725 279.741 362.496 279.459 362.496C279.177 362.496 278.948 362.725 278.948 363.007C278.948 363.289 279.177 363.518 279.459 363.518Z" fill="#452775"/>
<path d="M279.586 388.864C279.762 388.644 279.725 388.322 279.505 388.146C279.284 387.971 278.963 388.007 278.787 388.227C278.611 388.448 278.647 388.769 278.868 388.945C279.088 389.121 279.41 389.085 279.586 388.864Z" fill="#452775"/>
<path d="M281.464 391.007C281.673 390.817 281.688 390.494 281.498 390.286C281.308 390.077 280.985 390.062 280.777 390.252C280.568 390.442 280.553 390.765 280.743 390.973C280.933 391.182 281.256 391.197 281.464 391.007Z" fill="#452775"/>
<path d="M260.064 416.868C261.95 407.177 263.254 399.277 262.977 399.224C262.7 399.17 260.947 406.982 259.061 416.673C257.176 426.363 255.871 434.263 256.148 434.317C256.425 434.371 258.178 426.558 260.064 416.868Z" fill="#452775"/>
<path d="M244.834 414.623C246.838 405.245 248.239 397.595 247.964 397.536C247.688 397.477 245.839 405.032 243.835 414.41C241.831 423.788 240.429 431.439 240.705 431.498C240.981 431.557 242.83 424.002 244.834 414.623Z" fill="#452775"/>
<path d="M227.762 393.08C247.426 396.872 263.41 399.72 263.464 399.443C263.517 399.166 247.619 395.869 227.955 392.078C208.291 388.286 192.306 385.438 192.253 385.715C192.2 385.992 208.097 389.289 227.762 393.08Z" fill="#452775"/>
<path d="M224.782 432.007C241.935 433.371 255.858 434.249 255.881 433.968C255.903 433.687 242.016 432.353 224.863 430.989C207.71 429.625 193.787 428.747 193.765 429.028C193.742 429.309 207.629 430.643 224.782 432.007Z" fill="#452775"/>
<path d="M273.841 443.702C273.841 443.702 272.82 440.638 272.309 436.041C271.798 431.955 272.309 428.38 272.309 428.38C272.309 428.38 272.309 431.955 272.82 436.041C273.841 440.127 274.352 443.702 273.841 443.702Z" fill="#452775"/>
<path d="M289.185 322.147C294.528 321.727 298.841 321.158 298.819 320.877C298.796 320.596 294.447 320.709 289.105 321.129C283.762 321.549 279.449 322.118 279.471 322.399C279.493 322.681 283.842 322.568 289.185 322.147Z" fill="#452775"/>
<path d="M330.863 358.586C345.631 376.751 357.78 391.332 357.999 391.154C358.218 390.976 346.424 376.106 331.656 357.941C316.888 339.776 304.738 325.195 304.519 325.373C304.301 325.551 316.095 340.421 330.863 358.586Z" fill="#452775"/>
<path d="M199.547 362.461C200.541 376.247 201.575 387.406 201.857 387.385C202.138 387.365 201.56 376.173 200.566 362.388C199.572 348.603 198.538 337.444 198.256 337.464C197.975 337.484 198.553 348.676 199.547 362.461Z" fill="#452775"/>
<path d="M207.957 445.745C207.957 445.745 206.425 442.681 205.403 438.084C204.893 433.488 205.403 429.912 205.403 429.912C205.403 429.912 205.403 433.488 205.914 437.573C206.936 442.17 207.957 445.745 207.957 445.745Z" fill="#452775"/>
<path d="M290.342 313.897C291.432 315.192 292.491 316.094 292.707 315.913C292.922 315.731 292.214 314.534 291.124 313.239C290.033 311.945 288.975 311.042 288.759 311.224C288.543 311.406 289.252 312.603 290.342 313.897Z" fill="#A869C5"/>
<path d="M226.822 342.811C228.096 340.948 228.939 339.309 228.706 339.15C228.473 338.99 227.252 340.372 225.979 342.235C224.706 344.098 223.863 345.737 224.095 345.896C224.328 346.055 225.549 344.674 226.822 342.811Z" fill="#A869C5"/>
<path d="M208.069 350.126C209.91 351.874 211.56 353.125 211.754 352.92C211.948 352.716 210.613 351.133 208.772 349.385C206.931 347.637 205.281 346.386 205.087 346.591C204.893 346.796 206.228 348.378 208.069 350.126Z" fill="#A869C5"/>
<path d="M215.107 335.428C215.107 335.428 213.575 333.896 213.064 331.853C212.554 329.81 212.554 327.767 212.554 327.767C212.554 327.767 213.064 329.81 213.575 331.853C214.086 333.385 215.107 334.917 215.107 335.428Z" fill="#A869C5"/>
<path d="M223.79 320.106C223.79 320.106 222.257 319.595 220.214 318.574C218.682 317.041 217.661 316.02 217.661 315.509C217.661 315.509 219.193 316.531 220.725 318.063C222.768 319.084 224.3 320.106 223.79 320.106Z" fill="#A869C5"/>
<path d="M248.423 339.264C249.423 337.563 250.037 336.067 249.794 335.924C249.551 335.781 248.543 337.045 247.542 338.747C246.542 340.449 245.927 341.944 246.171 342.087C246.414 342.23 247.422 340.966 248.423 339.264Z" fill="#A869C5"/>
<path d="M239.622 330.831C239.622 330.831 239.111 328.788 238.601 326.235C238.601 323.681 238.601 321.638 239.111 321.638C239.111 321.638 239.111 323.681 239.622 326.235C239.622 328.788 239.622 330.831 239.622 330.831Z" fill="#A869C5"/>
<path d="M239.622 360.964C239.622 360.964 238.601 358.921 238.09 356.368C237.579 353.814 238.09 351.771 238.09 351.771C238.09 351.771 238.09 353.814 238.601 356.368C239.111 358.921 239.622 360.964 239.622 360.964Z" fill="#A869C5"/>
<path d="M229.408 368.625C229.408 368.625 227.875 367.604 226.343 365.561C224.811 363.518 224.3 361.475 224.3 361.475C224.3 361.475 225.322 363.007 226.854 365.05C228.386 367.093 229.918 368.625 229.408 368.625Z" fill="#A869C5"/>
<path d="M213.29 375.095C214.667 374.11 215.649 373.126 215.485 372.896C215.321 372.667 214.072 373.279 212.696 374.264C211.319 375.249 210.337 376.233 210.501 376.462C210.665 376.692 211.914 376.079 213.29 375.095Z" fill="#A869C5"/>
<path d="M206.936 365.561C206.936 365.561 205.914 365.05 204.893 364.029C203.871 363.007 203.871 361.986 203.871 361.475C203.871 361.475 204.382 362.496 205.403 363.518C206.425 364.539 206.936 365.561 206.936 365.561Z" fill="#A869C5"/>
<path d="M228.684 387.676C229.235 385.78 229.461 384.179 229.19 384.1C228.919 384.022 228.254 385.495 227.703 387.391C227.153 389.288 226.926 390.889 227.197 390.967C227.468 391.046 228.134 389.572 228.684 387.676Z" fill="#A869C5"/>
<path d="M242.687 387.522C242.687 387.522 241.154 386.501 240.133 384.458C239.111 382.415 239.111 380.372 239.111 380.372C239.111 380.372 239.622 381.904 240.644 383.947C241.665 385.99 242.687 387.522 242.687 387.522Z" fill="#A869C5"/>
<path d="M256.271 385.999C258.149 387.249 259.799 388.073 259.955 387.838C260.111 387.603 258.715 386.399 256.837 385.149C254.959 383.898 253.309 383.075 253.153 383.309C252.997 383.544 254.393 384.748 256.271 385.999Z" fill="#A869C5"/>
<path d="M258.847 371.154C260.58 369.709 261.839 368.362 261.658 368.145C261.478 367.929 259.926 368.924 258.193 370.369C256.46 371.814 255.201 373.161 255.382 373.378C255.562 373.594 257.114 372.599 258.847 371.154Z" fill="#A869C5"/>
<path d="M246.425 370.063C246.926 369.38 247.147 368.692 246.919 368.525C246.692 368.358 246.102 368.776 245.602 369.459C245.101 370.141 244.88 370.83 245.108 370.996C245.335 371.163 245.925 370.745 246.425 370.063Z" fill="#A869C5"/>
<path d="M258.008 356.878C258.008 356.878 256.476 355.346 254.433 353.814C252.39 352.282 250.858 351.26 250.858 350.75C250.858 350.75 252.901 351.26 254.433 353.303C256.987 354.835 258.008 356.878 258.008 356.878Z" fill="#A869C5"/>
<path d="M224.3 309.381C224.3 309.381 225.322 307.338 226.854 304.784C227.875 302.23 228.897 300.187 228.897 300.187C228.897 300.187 228.897 302.741 227.365 305.295C226.343 307.848 224.3 309.381 224.3 309.381Z" fill="#A869C5"/>
<path d="M217.661 302.23C217.661 302.23 217.15 300.187 216.639 297.634C216.639 295.08 216.639 293.037 216.639 293.037C216.639 293.037 217.15 295.08 217.15 297.634C217.661 300.187 218.172 302.23 217.661 302.23Z" fill="#A869C5"/>
<path d="M218.172 274.651C218.172 274.651 216.639 274.651 215.107 273.63C213.575 272.608 213.064 271.076 213.064 271.076C213.064 271.076 214.086 272.097 215.618 273.119C216.639 273.63 218.172 274.14 218.172 274.651Z" fill="#A869C5"/>
<path d="M211.152 262.246C212.428 261.644 213.364 260.949 213.243 260.694C213.123 260.439 211.991 260.721 210.716 261.323C209.441 261.925 208.504 262.62 208.625 262.875C208.745 263.13 209.877 262.848 211.152 262.246Z" fill="#A869C5"/>
<path d="M229.946 278.599C229.744 280.279 229.808 281.669 230.088 281.702C230.368 281.736 230.758 280.401 230.96 278.72C231.161 277.04 231.098 275.651 230.818 275.617C230.538 275.583 230.147 276.918 229.946 278.599Z" fill="#A869C5"/>
<path d="M239.19 301.12C240.092 301.797 240.961 302.163 241.13 301.938C241.3 301.712 240.706 300.98 239.803 300.303C238.901 299.625 238.032 299.259 237.863 299.484C237.694 299.71 238.288 300.442 239.19 301.12Z" fill="#A869C5"/>
<path d="M275.258 297.93C275.705 296.007 275.845 294.396 275.57 294.332C275.295 294.268 274.71 295.775 274.263 297.699C273.815 299.622 273.675 301.232 273.95 301.296C274.225 301.36 274.81 299.853 275.258 297.93Z" fill="#A869C5"/>
<path d="M276.395 277.205C276.395 277.205 275.373 276.694 274.352 275.673C273.33 274.651 273.33 273.63 273.33 273.63C273.33 273.63 273.841 274.651 274.862 275.673C275.373 276.183 276.395 276.694 276.395 277.205Z" fill="#A869C5"/>
<path d="M284.498 284.145C285.389 282.706 285.917 281.419 285.677 281.27C285.437 281.122 284.52 282.168 283.629 283.607C282.738 285.046 282.21 286.332 282.45 286.481C282.69 286.629 283.607 285.583 284.498 284.145Z" fill="#A869C5"/>
<path d="M292.847 285.798C292.712 288.05 292.831 289.89 293.113 289.907C293.394 289.924 293.732 288.111 293.866 285.859C294.001 283.606 293.882 281.767 293.601 281.75C293.319 281.733 292.982 283.545 292.847 285.798Z" fill="#A869C5"/>
<path d="M284.017 267.694C285.621 269.661 287.099 271.112 287.318 270.933C287.536 270.755 286.413 269.016 284.808 267.048C283.204 265.081 281.726 263.631 281.507 263.809C281.289 263.987 282.412 265.727 284.017 267.694Z" fill="#A869C5"/>
<path d="M195.229 294.018C194.819 296.523 194.713 298.591 194.991 298.637C195.269 298.682 195.827 296.688 196.237 294.183C196.647 291.678 196.754 289.61 196.476 289.564C196.197 289.519 195.639 291.513 195.229 294.018Z" fill="#A869C5"/>
<path d="M187.528 282.823C187.528 282.823 185.996 283.333 183.953 283.844C181.91 284.355 180.378 284.866 180.378 284.866C180.378 284.866 181.91 283.844 183.953 283.333C185.996 282.312 187.528 282.312 187.528 282.823Z" fill="#A869C5"/>
<path d="M195.175 274.547C196.371 275.744 197.503 276.552 197.703 276.353C197.902 276.153 197.094 275.022 195.897 273.825C194.7 272.629 193.568 271.82 193.369 272.02C193.169 272.219 193.978 273.351 195.175 274.547Z" fill="#A869C5"/>
<path d="M206.425 295.08C206.425 295.08 205.403 293.548 205.403 290.994C205.403 288.951 205.914 286.909 205.914 286.909C205.914 286.909 205.914 288.951 205.914 290.994C206.425 293.548 206.425 295.08 206.425 295.08Z" fill="#A869C5"/>
<path d="M196.634 317.604C195.858 319.42 195.438 320.981 195.698 321.092C195.957 321.203 196.797 319.821 197.574 318.006C198.35 316.191 198.77 314.629 198.51 314.518C198.251 314.407 197.411 315.789 196.634 317.604Z" fill="#A869C5"/>
<path d="M186.506 309.891C186.506 309.891 186.506 308.359 187.528 306.827C188.549 305.295 189.571 304.273 190.082 304.784C190.082 304.784 189.06 305.805 188.039 307.338C187.017 308.87 186.506 310.402 186.506 309.891Z" fill="#A869C5"/>
<path d="M175.012 303.157C173.996 305.483 173.382 307.461 173.64 307.574C173.899 307.687 174.932 305.892 175.948 303.566C176.965 301.24 177.579 299.262 177.32 299.149C177.062 299.036 176.028 300.831 175.012 303.157Z" fill="#A869C5"/>
<path d="M165.776 299.802C165.481 302.039 165.468 303.883 165.748 303.92C166.028 303.957 166.493 302.173 166.788 299.936C167.083 297.699 167.096 295.855 166.816 295.818C166.536 295.781 166.071 297.565 165.776 299.802Z" fill="#A869C5"/>
<path d="M157.753 322.842C158.753 324.544 159.761 325.808 160.004 325.665C160.248 325.522 159.634 324.026 158.633 322.324C157.633 320.622 156.625 319.358 156.381 319.501C156.138 319.644 156.752 321.139 157.753 322.842Z" fill="#A869C5"/>
<path d="M168.524 315.087C169.078 316.982 169.746 318.455 170.017 318.376C170.288 318.296 170.058 316.696 169.505 314.801C168.951 312.905 168.282 311.433 168.011 311.512C167.741 311.591 167.97 313.192 168.524 315.087Z" fill="#A869C5"/>
<path d="M182.931 326.745C182.931 326.745 180.888 327.767 178.845 329.299C176.803 330.831 174.76 331.853 174.76 331.853C174.76 331.853 176.292 330.32 178.335 328.788C180.888 327.256 182.931 326.235 182.931 326.745Z" fill="#A869C5"/>
<path d="M185.996 346.153C185.996 346.153 187.017 344.621 188.039 342.067C189.06 340.024 190.082 337.981 190.082 337.981C190.082 337.981 189.571 340.024 188.549 342.067C187.528 345.132 185.996 346.153 185.996 346.153Z" fill="#A869C5"/>
<path d="M176.508 344.291C176.363 346.825 176.474 348.893 176.756 348.909C177.037 348.925 177.383 346.884 177.528 344.349C177.673 341.815 177.562 339.747 177.28 339.731C176.999 339.715 176.653 341.756 176.508 344.291Z" fill="#A869C5"/>
<path d="M167.609 344.11C167.609 344.11 165.056 343.599 163.013 341.046C160.97 339.003 159.949 336.449 160.459 336.449C160.459 336.449 161.481 338.492 163.524 340.535C165.567 342.578 167.609 343.599 167.609 344.11Z" fill="#A869C5"/>
<path d="M152.525 338.08C152.099 340.296 151.978 342.136 152.255 342.189C152.532 342.242 153.102 340.489 153.528 338.273C153.955 336.057 154.076 334.218 153.799 334.164C153.522 334.111 152.951 335.864 152.525 338.08Z" fill="#A869C5"/>
<path d="M177.313 359.943C177.313 359.943 176.292 360.964 174.76 362.496C173.227 363.518 172.206 365.05 172.206 364.539C172.206 364.539 172.717 363.007 174.249 361.986C175.781 360.453 176.803 359.943 177.313 359.943Z" fill="#A869C5"/>
<path d="M158.365 362.079C158.402 364.618 158.66 366.672 158.942 366.668C159.224 366.664 159.423 364.603 159.386 362.064C159.349 359.526 159.091 357.472 158.809 357.476C158.527 357.48 158.328 359.541 158.365 362.079Z" fill="#A869C5"/>
<path d="M150.245 371.689C150.245 371.689 148.202 371.689 146.159 370.668C144.116 369.647 142.073 368.625 142.584 368.625C142.584 368.625 144.627 369.136 146.67 370.157C148.713 370.668 150.245 371.689 150.245 371.689Z" fill="#A869C5"/>
<path d="M144.576 354.458C144.88 356.694 145.353 358.476 145.633 358.438C145.912 358.4 145.892 356.556 145.588 354.32C145.283 352.084 144.81 350.303 144.531 350.341C144.251 350.379 144.271 352.222 144.576 354.458Z" fill="#A869C5"/>
<path d="M157.481 381.421C159.424 381.067 160.957 380.554 160.907 380.277C160.856 379.999 159.24 380.062 157.298 380.416C155.355 380.771 153.822 381.283 153.872 381.56C153.923 381.838 155.539 381.776 157.481 381.421Z" fill="#A869C5"/>
<path d="M136.239 382.61C136.465 384.855 136.875 386.653 137.156 386.624C137.436 386.596 137.481 384.753 137.256 382.508C137.03 380.263 136.62 378.465 136.339 378.494C136.058 378.522 136.014 380.365 136.239 382.61Z" fill="#A869C5"/>
<path d="M127.704 396.181C128.194 398.384 128.815 400.12 129.09 400.058C129.365 399.997 129.191 398.162 128.701 395.959C128.212 393.757 127.591 392.021 127.316 392.082C127.041 392.143 127.215 393.978 127.704 396.181Z" fill="#A869C5"/>
<path d="M132.996 408.864C134.747 407.951 136.061 407.009 135.931 406.759C135.801 406.509 134.275 407.045 132.524 407.958C130.773 408.87 129.459 409.812 129.59 410.062C129.72 410.312 131.245 409.776 132.996 408.864Z" fill="#A869C5"/>
<path d="M144.116 403.865C144.116 403.865 142.584 402.333 141.562 400.29C140.541 398.247 140.03 396.204 140.03 395.694C140.03 395.694 141.052 397.737 142.073 399.78C143.095 402.333 144.627 403.865 144.116 403.865Z" fill="#A869C5"/>
<path d="M153.806 396.376C154.456 397.939 155.193 399.118 155.454 399.01C155.714 398.901 155.399 397.547 154.749 395.984C154.1 394.421 153.362 393.242 153.102 393.35C152.841 393.459 153.156 394.813 153.806 396.376Z" fill="#A869C5"/>
<path d="M146.946 414.364C148.844 412.678 150.23 411.14 150.043 410.929C149.855 410.718 148.165 411.914 146.268 413.601C144.37 415.287 142.984 416.825 143.171 417.036C143.358 417.247 145.049 416.05 146.946 414.364Z" fill="#A869C5"/>
<path d="M166.077 416.123C166.077 416.123 164.034 414.591 162.502 412.037C160.97 409.483 159.949 407.44 159.949 407.44C159.949 407.44 161.481 409.483 163.013 412.037C164.545 414.591 166.077 416.123 166.077 416.123Z" fill="#A869C5"/>
<path d="M158.451 423.291C160.421 423.151 162.001 422.809 161.981 422.528C161.961 422.247 160.348 422.132 158.379 422.272C156.409 422.412 154.829 422.754 154.849 423.036C154.869 423.317 156.482 423.431 158.451 423.291Z" fill="#A869C5"/>
<path d="M170.529 391.279C171.509 394.519 172.521 397.079 172.791 396.997C173.061 396.916 172.486 394.223 171.507 390.983C170.528 387.743 169.515 385.183 169.245 385.264C168.975 385.346 169.55 388.039 170.529 391.279Z" fill="#A869C5"/>
<path d="M183.998 392.112C186.512 391.762 188.519 391.251 188.48 390.972C188.441 390.693 186.371 390.75 183.857 391.1C181.343 391.45 179.336 391.96 179.375 392.24C179.414 392.519 181.484 392.462 183.998 392.112Z" fill="#A869C5"/>
<path d="M180.378 407.951C180.378 407.951 178.845 408.462 177.313 409.483C175.781 409.994 174.76 411.015 174.249 411.015C174.249 411.015 175.27 409.994 176.803 408.973C178.845 407.44 180.378 407.44 180.378 407.951Z" fill="#A869C5"/>
<path d="M183.508 419.686C185.281 421.503 186.881 422.816 187.083 422.619C187.285 422.422 186.012 420.789 184.239 418.972C182.466 417.155 180.866 415.842 180.664 416.039C180.462 416.236 181.735 417.868 183.508 419.686Z" fill="#A869C5"/>
<path d="M195.189 410.505C195.189 410.505 195.189 408.462 195.7 406.419C195.7 404.376 196.21 402.333 196.21 402.333C196.21 402.333 196.721 404.376 196.21 406.419C195.7 408.462 195.189 410.505 195.189 410.505Z" fill="#A869C5"/>
<path d="M201.477 421.664C203.804 420.648 205.598 419.616 205.486 419.357C205.373 419.099 203.395 419.712 201.069 420.728C198.742 421.743 196.947 422.776 197.06 423.034C197.173 423.293 199.15 422.679 201.477 421.664Z" fill="#A869C5"/>
<path d="M208.634 396.306C210.003 398.772 211.313 400.661 211.559 400.524C211.806 400.387 210.896 398.277 209.527 395.81C208.158 393.344 206.848 391.456 206.601 391.593C206.354 391.73 207.264 393.84 208.634 396.306Z" fill="#A869C5"/>
<path d="M216.129 408.462C216.129 408.462 214.086 408.462 212.043 408.973C209.489 408.973 207.957 409.483 207.957 409.483C207.957 409.483 209.489 408.462 212.043 408.462C214.086 407.951 216.129 407.951 216.129 408.462Z" fill="#A869C5"/>
<path d="M230.94 404.376C230.94 404.376 229.408 402.333 227.875 400.29C226.343 398.247 224.811 396.715 224.811 396.715C224.811 396.715 226.854 397.737 228.386 400.29C230.429 401.822 231.451 403.865 230.94 404.376Z" fill="#A869C5"/>
<path d="M224.523 418.638C226.373 417.948 227.793 417.175 227.695 416.911C227.596 416.647 226.016 416.991 224.166 417.68C222.316 418.37 220.896 419.143 220.994 419.407C221.093 419.671 222.672 419.327 224.523 418.638Z" fill="#A869C5"/>
<path d="M250.451 420.321C250.765 422.556 251.246 424.336 251.526 424.297C251.805 424.257 251.777 422.414 251.463 420.179C251.149 417.945 250.667 416.165 250.388 416.204C250.109 416.243 250.137 418.087 250.451 420.321Z" fill="#A869C5"/>
<path d="M255.052 404.015C254.692 406.528 254.626 408.598 254.905 408.638C255.184 408.678 255.703 406.673 256.063 404.16C256.424 401.647 256.49 399.578 256.21 399.538C255.931 399.498 255.413 401.502 255.052 404.015Z" fill="#A869C5"/>
<path d="M236.595 419.123C238.004 415.738 238.935 412.906 238.675 412.798C238.414 412.689 237.061 415.346 235.652 418.731C234.243 422.116 233.311 424.948 233.572 425.057C233.832 425.165 235.186 422.509 236.595 419.123Z" fill="#A869C5"/>
<path d="M194.495 362.554C194.848 365.068 195.361 367.074 195.64 367.035C195.92 366.995 195.86 364.925 195.506 362.411C195.153 359.898 194.64 357.891 194.361 357.931C194.081 357.97 194.141 360.04 194.495 362.554Z" fill="#A869C5"/>
<path d="M197.232 382.415C197.232 382.415 196.21 381.393 196.21 379.861C196.21 378.329 196.21 376.797 196.721 377.307C196.721 377.307 196.721 378.329 197.232 379.861C196.721 381.393 197.232 382.415 197.232 382.415Z" fill="#A869C5"/>
<path d="M198.593 438.936C198.988 440.582 199.531 441.862 199.805 441.797C200.08 441.731 199.982 440.343 199.587 438.698C199.191 437.052 198.649 435.771 198.374 435.837C198.1 435.903 198.198 437.29 198.593 438.936Z" fill="#A869C5"/>
<path d="M213.987 438.047C216.402 438.828 218.431 439.244 218.518 438.976C218.604 438.707 216.717 437.856 214.302 437.075C211.886 436.294 209.858 435.878 209.771 436.146C209.684 436.414 211.572 437.265 213.987 438.047Z" fill="#A869C5"/>
<path d="M231.875 438.85C233.41 437.608 234.511 436.424 234.333 436.205C234.156 435.985 232.768 436.814 231.233 438.056C229.698 439.298 228.597 440.483 228.775 440.702C228.952 440.921 230.34 440.092 231.875 438.85Z" fill="#A869C5"/>
<path d="M249.326 439.616C249.326 439.616 247.794 439.106 245.751 438.084C243.708 437.573 242.176 437.063 242.176 437.063C242.176 437.063 244.219 437.063 246.262 437.573C247.794 438.595 249.326 439.616 249.326 439.616Z" fill="#A869C5"/>
<path d="M267.201 433.488C267.201 433.488 266.691 434.509 265.669 436.041C264.648 437.573 264.137 438.595 264.137 438.595C264.137 438.595 264.137 437.063 265.159 436.041C266.18 433.998 267.201 432.977 267.201 433.488Z" fill="#A869C5"/>
<path d="M266.496 393.249C266.833 395.48 267.332 397.255 267.611 397.213C267.89 397.17 267.843 395.328 267.506 393.096C267.169 390.865 266.67 389.09 266.391 389.132C266.112 389.175 266.159 391.017 266.496 393.249Z" fill="#A869C5"/>
<path d="M279.242 403.19C280.85 404.335 282.287 405.077 282.45 404.848C282.614 404.618 281.443 403.503 279.834 402.358C278.226 401.213 276.789 400.471 276.626 400.7C276.462 400.93 277.634 402.045 279.242 403.19Z" fill="#A869C5"/>
<path d="M299.785 376.7C298.798 379.641 298.215 382.098 298.482 382.188C298.75 382.278 299.767 379.966 300.754 377.025C301.741 374.083 302.324 371.626 302.057 371.536C301.789 371.446 300.772 373.758 299.785 376.7Z" fill="#A869C5"/>
<path d="M285.914 378.138C287.678 379.545 289.251 380.508 289.426 380.287C289.602 380.067 288.315 378.747 286.552 377.339C284.788 375.932 283.215 374.969 283.039 375.19C282.864 375.41 284.151 376.73 285.914 378.138Z" fill="#A869C5"/>
<path d="M292.921 365.901C293.749 364.109 294.213 362.56 293.957 362.442C293.701 362.323 292.822 363.68 291.994 365.473C291.165 367.265 290.702 368.814 290.958 368.933C291.214 369.051 292.093 367.694 292.921 365.901Z" fill="#A869C5"/>
<path d="M276.395 378.84C276.395 378.84 275.373 377.818 274.352 375.775C273.33 373.732 273.33 372.2 273.33 372.2C273.33 372.2 273.841 373.732 274.862 375.265C275.884 377.307 276.395 378.84 276.395 378.84Z" fill="#A869C5"/>
<path d="M290.184 344.621C290.184 344.621 289.674 346.153 288.141 347.685C286.609 349.217 285.077 349.728 285.077 349.728C285.077 349.728 286.098 348.707 287.631 347.174C289.163 345.642 289.674 344.621 290.184 344.621Z" fill="#A869C5"/>
<path d="M273.003 344.489C274.115 346.12 275.206 347.314 275.439 347.155C275.672 346.996 274.959 345.545 273.847 343.913C272.734 342.282 271.643 341.089 271.41 341.247C271.177 341.406 271.89 342.858 273.003 344.489Z" fill="#A869C5"/>
<path d="M286.267 332.263C287.953 333.29 289.44 333.926 289.586 333.685C289.733 333.445 288.484 332.417 286.797 331.391C285.111 330.364 283.624 329.728 283.478 329.969C283.331 330.21 284.58 331.237 286.267 332.263Z" fill="#A869C5"/>
<path d="M299.24 340.77C299.057 343.868 299.136 346.392 299.418 346.409C299.699 346.425 300.076 343.928 300.26 340.83C300.443 337.733 300.363 335.208 300.082 335.192C299.8 335.175 299.423 337.673 299.24 340.77Z" fill="#A869C5"/>
<path d="M293.161 396.95C292.266 399.325 291.755 401.332 292.019 401.431C292.283 401.531 293.222 399.686 294.117 397.31C295.012 394.934 295.523 392.928 295.259 392.828C294.996 392.729 294.056 394.574 293.161 396.95Z" fill="#A869C5"/>
<path d="M305.816 398.852C305.215 401.318 304.951 403.372 305.225 403.439C305.499 403.505 306.208 401.56 306.808 399.094C307.408 396.627 307.673 394.573 307.399 394.507C307.125 394.44 306.416 396.385 305.816 398.852Z" fill="#A869C5"/>
<path d="M284.566 439.106C284.566 439.106 283.034 438.084 282.523 436.041C282.013 433.998 282.013 432.466 282.013 432.466C282.013 432.466 282.523 433.998 283.034 436.041C284.056 437.573 285.077 439.106 284.566 439.106Z" fill="#A869C5"/>
<path d="M325.425 331.342C325.425 331.342 324.914 329.299 324.914 326.745C324.914 324.192 325.425 322.149 325.935 322.149C325.935 322.149 325.935 324.192 325.935 326.745C325.425 329.299 325.425 331.342 325.425 331.342Z" fill="#A869C5"/>
<path d="M313.563 321.571C315.47 322.083 317.075 322.277 317.148 322.004C317.221 321.732 315.734 321.096 313.827 320.585C311.92 320.073 310.315 319.88 310.242 320.152C310.169 320.425 311.655 321.06 313.563 321.571Z" fill="#A869C5"/>
<path d="M318.234 304.713C318.187 307.533 318.378 309.824 318.66 309.828C318.942 309.833 319.209 307.55 319.256 304.73C319.303 301.91 319.112 299.619 318.83 299.615C318.548 299.61 318.281 301.893 318.234 304.713Z" fill="#A869C5"/>
<path d="M307.991 303.728C310.24 303.918 312.082 303.844 312.105 303.563C312.129 303.282 310.326 302.9 308.077 302.71C305.829 302.52 303.987 302.594 303.963 302.875C303.939 303.156 305.743 303.538 307.991 303.728Z" fill="#A869C5"/>
<path d="M305.523 287.008C305.67 288.977 306.017 290.557 306.298 290.536C306.579 290.515 306.688 288.902 306.542 286.933C306.395 284.964 306.049 283.385 305.767 283.405C305.486 283.426 305.377 285.039 305.523 287.008Z" fill="#A869C5"/>
<path d="M313.708 349.583C315.072 351.381 316.36 352.699 316.585 352.529C316.809 352.358 315.886 350.763 314.522 348.965C313.158 347.168 311.87 345.849 311.645 346.019C311.42 346.19 312.344 347.785 313.708 349.583Z" fill="#A869C5"/>
<path d="M322.647 358.055C322.458 360.303 322.533 362.145 322.814 362.169C323.095 362.193 323.476 360.389 323.665 358.14C323.854 355.892 323.78 354.05 323.499 354.026C323.218 354.002 322.836 355.806 322.647 358.055Z" fill="#A869C5"/>
<path d="M330.58 369.087C332.26 368.883 333.594 368.491 333.561 368.211C333.527 367.931 332.137 367.869 330.457 368.073C328.777 368.276 327.443 368.668 327.477 368.948C327.51 369.228 328.9 369.29 330.58 369.087Z" fill="#A869C5"/>
<path d="M338.193 378.972C338.727 377.366 338.942 375.992 338.674 375.903C338.407 375.814 337.757 377.044 337.224 378.65C336.691 380.256 336.475 381.63 336.743 381.719C337.011 381.808 337.66 380.578 338.193 378.972Z" fill="#A869C5"/>
<path d="M346.875 387.011C346.875 387.011 346.364 388.033 345.854 389.565C345.343 391.097 345.854 392.119 345.343 392.119C345.343 392.119 344.832 391.097 344.832 389.054C345.854 388.033 346.875 387.011 346.875 387.011Z" fill="#A869C5"/>
<path d="M349.939 368.114C349.939 368.114 347.897 368.114 345.854 368.625C343.3 368.625 341.768 369.136 341.768 369.136C341.768 369.136 343.3 368.114 345.854 368.114C347.897 367.604 349.939 368.114 349.939 368.114Z" fill="#A869C5"/>
<path d="M359.133 365.05C359.133 365.05 359.133 367.093 358.622 369.136C358.622 371.689 358.622 373.222 358.111 373.222C358.111 373.222 357.6 371.179 357.6 369.136C358.111 366.582 358.622 365.05 359.133 365.05Z" fill="#A869C5"/>
<path d="M337.344 344.311C337.079 347.119 337.092 349.417 337.373 349.444C337.654 349.47 338.096 347.215 338.361 344.407C338.626 341.599 338.613 339.301 338.333 339.274C338.052 339.248 337.609 341.503 337.344 344.311Z" fill="#A869C5"/>
<path d="M328.892 340.009C330.829 340.389 332.444 340.472 332.498 340.196C332.552 339.919 331.026 339.387 329.088 339.007C327.15 338.627 325.536 338.544 325.482 338.821C325.427 339.097 326.954 339.63 328.892 340.009Z" fill="#A869C5"/>
<path d="M336.661 326.235C336.661 326.235 335.639 324.192 335.639 321.638C335.639 319.084 336.15 317.041 336.15 317.041C336.15 317.041 336.15 319.084 336.15 321.638C336.661 324.192 337.171 325.724 336.661 326.235Z" fill="#A869C5"/>
<path d="M328.405 312.438C329.524 312.58 330.46 312.468 330.496 312.188C330.531 311.908 329.652 311.566 328.533 311.425C327.414 311.283 326.477 311.395 326.442 311.675C326.407 311.955 327.285 312.296 328.405 312.438Z" fill="#A869C5"/>
<path d="M348.918 337.981C348.918 337.981 347.386 337.981 345.854 336.96C344.321 335.938 343.3 334.917 343.3 334.917C343.3 334.917 344.321 335.428 345.854 336.449C347.897 336.96 348.918 337.471 348.918 337.981Z" fill="#A869C5"/>
<path d="M352.7 354.245C354.453 353.336 355.769 352.396 355.639 352.146C355.509 351.895 353.983 352.429 352.23 353.338C350.477 354.247 349.161 355.187 349.291 355.437C349.421 355.687 350.947 355.154 352.7 354.245Z" fill="#A869C5"/>
<path d="M227.875 254.222L228.897 242.986L251.369 260.861L256.987 270.054L267.201 246.05L269.755 249.625V263.926L258.519 277.205L238.09 275.162L227.875 254.222Z" fill="#F9FAFD"/>
<path d="M250.347 261.883C250.347 261.883 250.347 262.394 250.347 263.415C250.347 264.436 250.347 265.458 249.837 266.99C249.326 270.565 249.326 275.162 248.815 280.269V281.29L248.305 280.78C246.772 278.737 245.24 276.694 243.197 274.651C238.601 269.033 234.515 263.926 231.451 260.351C229.918 258.308 228.897 257.286 227.875 255.754C226.854 254.733 226.854 254.222 226.854 254.222C226.854 254.222 227.365 254.733 228.386 255.754C229.408 256.776 230.429 258.308 231.961 259.84C235.026 263.415 239.111 268.522 243.708 274.14C245.24 276.183 247.283 278.226 248.815 280.269H248.305C248.815 275.162 249.326 270.565 249.837 266.99C249.837 265.458 250.347 264.436 250.347 263.415C250.347 262.394 250.347 261.883 250.347 261.883Z" fill="#C7CDDD"/>
<path d="M269.244 263.415C269.244 263.415 269.244 264.436 269.244 265.458C269.244 266.99 268.734 269.033 268.734 271.076V272.608L268.223 271.076C267.712 270.054 267.201 268.522 267.201 266.99C266.18 263.926 265.669 260.861 265.669 258.308C265.159 256.265 265.159 254.733 265.669 254.733C265.669 254.733 266.18 256.265 266.18 258.308C266.691 260.351 267.202 263.415 268.223 266.99C268.734 268.522 268.734 269.544 269.244 271.076H268.734C269.244 268.522 269.244 266.99 269.755 265.458C269.244 263.926 269.244 263.415 269.244 263.415Z" fill="#C7CDDD"/>
<path d="M267.712 340.535C267.712 340.535 267.712 340.535 267.712 340.024C267.712 339.513 267.712 339.003 267.201 337.981C266.691 335.938 266.691 333.385 266.18 330.32C265.159 323.681 264.137 314.999 262.605 305.295C261.073 295.591 260.051 286.908 259.03 280.269C258.519 277.205 258.008 274.651 258.008 272.608C258.008 271.587 258.008 271.076 257.498 270.565C257.498 270.054 257.498 270.054 257.498 270.054C257.498 270.054 257.498 270.054 257.498 270.565C257.498 271.076 257.498 271.587 258.008 272.608C258.519 274.14 259.03 277.205 259.541 280.269C260.562 286.908 262.094 295.591 263.626 305.295C265.159 314.999 266.18 324.192 267.201 330.32C267.712 333.385 267.712 335.938 268.223 337.981C268.223 339.003 268.223 339.513 268.223 340.024C267.712 340.024 267.712 340.535 267.712 340.535Z" fill="#C7CDDD"/>
<path d="M247.283 272.608C247.283 272.608 247.283 273.119 246.772 273.63C246.262 274.14 246.262 274.651 246.262 274.651C246.262 274.651 245.751 274.14 246.262 273.63C246.772 272.608 247.283 272.608 247.283 272.608Z" fill="#C7CDDD"/>
<path d="M267.661 264.222C267.644 264.786 267.858 265.25 268.14 265.259C268.422 265.268 268.665 264.818 268.682 264.254C268.7 263.69 268.485 263.226 268.204 263.217C267.922 263.208 267.679 263.658 267.661 264.222Z" fill="#C7CDDD"/>
<path d="M265.159 255.754C265.159 255.754 264.137 259.329 262.094 262.904C260.051 266.479 257.498 269.033 257.498 269.033C257.498 269.033 259.541 265.969 261.583 262.394C263.626 258.818 264.648 255.754 265.159 255.754Z" fill="#C7CDDD"/>
<path d="M257.498 270.054C257.498 270.054 255.455 268.522 253.412 266.479C251.369 264.436 249.837 262.394 250.347 262.394C250.347 262.394 251.88 263.926 253.923 265.969C255.965 268.522 257.498 270.054 257.498 270.054Z" fill="#C7CDDD"/>
<path d="M263.626 290.994C263.626 290.994 263.116 290.484 263.116 289.973C263.116 289.462 263.116 288.951 263.116 288.951C263.116 288.951 263.626 289.462 263.626 289.973C263.626 290.484 263.626 290.484 263.626 290.994Z" fill="#C7CDDD"/>
<path d="M265.669 304.273C265.669 304.273 265.159 303.763 265.159 303.252C265.159 302.741 265.159 302.23 265.159 302.23C265.159 302.23 265.669 302.741 265.669 303.252C265.669 303.763 265.669 304.273 265.669 304.273Z" fill="#C7CDDD"/>
<path d="M259.03 204.681C259.03 204.681 259.03 205.192 260.051 205.703C260.562 206.213 262.094 206.213 263.626 205.192C264.137 204.681 264.648 203.66 264.648 203.149C264.648 202.128 265.159 201.106 264.648 200.085C264.648 198.042 264.137 195.488 264.137 192.935C263.626 187.827 263.626 183.231 263.626 180.166C263.626 178.634 263.626 177.102 263.626 176.08C263.626 175.059 263.626 174.548 263.626 174.548C263.626 174.548 263.626 175.059 263.626 176.08C263.626 177.102 263.626 178.123 264.137 180.166C264.648 183.231 264.648 187.827 265.159 192.935C265.159 195.488 265.669 198.042 265.669 200.085C265.669 201.106 265.669 202.128 265.159 203.149C264.648 204.171 264.137 205.192 263.626 205.703C263.116 206.213 262.094 206.724 261.583 206.724C261.073 206.724 260.051 206.724 260.051 206.213C259.03 205.192 259.03 204.681 259.03 204.681Z" fill="#E08F8D"/>
<path d="M263.116 213.364C263.116 213.364 262.094 213.874 260.562 214.385C259.03 214.896 256.476 214.385 254.433 213.364C252.39 211.831 250.858 209.789 250.347 208.256C249.837 206.724 249.837 205.703 249.837 205.703C249.837 205.703 249.837 206.724 250.858 208.256C251.369 209.789 252.901 211.321 254.944 212.853C256.987 213.874 259.03 214.385 260.562 213.874C262.094 213.874 262.605 213.364 263.116 213.364Z" fill="#E08F8D"/>
<path d="M251.369 205.192C251.369 205.192 250.347 205.192 248.815 205.703C247.794 206.213 247.283 207.235 247.283 207.235C247.283 207.235 247.283 206.724 247.283 206.213C247.283 205.703 247.794 205.192 248.815 204.681C249.326 204.171 250.347 204.171 250.858 204.171C251.369 205.192 251.369 205.192 251.369 205.192Z" fill="#E08F8D"/>
<path d="M268.734 235.836C268.734 235.836 268.223 236.346 267.201 236.857C266.18 237.368 264.648 237.879 263.116 238.389C259.541 239.411 254.433 240.432 248.815 239.922C243.197 238.9 238.09 236.857 235.026 234.814C233.493 233.793 232.472 232.771 231.451 232.261C230.94 231.75 230.429 231.239 230.429 231.239C230.429 231.239 231.961 232.771 235.026 234.814C238.09 236.857 242.687 238.9 248.305 239.922C253.923 240.943 259.03 239.922 262.605 238.9C266.18 236.857 268.223 235.325 268.734 235.836Z" fill="#E08F8D"/>
<path d="M216.129 205.192C216.129 205.192 217.15 204.681 217.661 203.149C217.661 202.638 218.172 201.617 217.661 200.595C217.15 199.574 216.639 199.063 215.618 199.063C214.596 199.063 214.086 200.085 214.596 201.106H214.086C213.575 198.042 213.064 195.488 213.575 195.488C213.575 195.488 214.086 197.531 215.107 201.106L215.618 202.638L214.596 201.106C214.086 200.085 214.596 198.553 216.129 198.042C216.639 198.042 217.661 198.042 218.172 198.553C218.682 199.063 219.193 199.574 219.193 200.085C219.704 201.106 219.193 202.128 219.193 203.149C218.682 204.171 218.172 204.681 218.172 204.681C216.129 205.192 216.129 205.192 216.129 205.192Z" fill="#E08F8D"/>
<path d="M247.222 182.285C247.237 184.259 247.478 185.858 247.76 185.856C248.042 185.854 248.259 184.251 248.243 182.277C248.228 180.302 247.987 178.703 247.705 178.706C247.423 178.708 247.207 180.31 247.222 182.285Z" fill="#452775"/>
<path d="M276.411 181.516C276.451 183.208 276.711 184.574 276.993 184.568C277.275 184.561 277.472 183.185 277.433 181.493C277.393 179.801 277.133 178.434 276.851 178.441C276.569 178.448 276.372 179.824 276.411 181.516Z" fill="#452775"/>
<path d="M220.725 189.359C219.704 191.913 219.193 194.467 220.214 196.51C221.236 198.553 224.811 200.085 225.832 198.042C226.343 197.02 226.343 195.999 226.343 195.488C226.343 188.849 226.343 182.209 226.343 176.08C235.536 174.548 243.708 166.887 246.262 157.694C251.369 160.759 258.008 160.759 263.116 158.205C265.159 157.184 267.201 155.651 269.755 155.651C272.819 156.162 274.352 159.226 276.905 160.759C280.991 163.823 287.631 161.78 289.674 157.184C291.716 152.587 289.163 146.458 284.566 143.905C278.948 140.329 271.798 141.351 265.159 141.862C252.901 143.394 241.154 144.926 228.897 145.948C226.343 146.458 224.3 146.458 222.257 147.99C220.214 149.523 219.704 152.076 218.682 154.119C216.129 163.312 214.596 172.505 215.107 182.209C215.107 185.274 215.618 188.338 218.172 189.87" fill="#552E3B"/>
<path d="M247.083 174.556C249.853 174.022 251.969 172.916 251.809 172.085C251.649 171.254 249.274 171.013 246.504 171.546C243.734 172.08 241.618 173.186 241.778 174.017C241.938 174.848 244.313 175.089 247.083 174.556Z" fill="#552E3B"/>
<path d="M276.258 172.977C278.508 173.142 280.382 172.591 280.444 171.747C280.506 170.903 278.731 170.086 276.481 169.921C274.23 169.757 272.356 170.308 272.294 171.152C272.233 171.996 274.007 172.813 276.258 172.977Z" fill="#552E3B"/>
<g opacity="0.26">
<path opacity="0.26" d="M248.305 193.956C255.356 193.956 261.073 188.239 261.073 181.188C261.073 174.136 255.356 168.42 248.305 168.42C241.253 168.42 235.536 174.136 235.536 181.188C235.536 188.239 241.253 193.956 248.305 193.956Z" fill="#DEECFC"/>
</g>
<g opacity="0.26">
<path opacity="0.26" d="M280.48 192.935C287.532 192.935 293.249 187.218 293.249 180.166C293.249 173.115 287.532 167.398 280.48 167.398C273.429 167.398 267.712 173.115 267.712 180.166C267.712 187.218 273.429 192.935 280.48 192.935Z" fill="#DEECFC"/>
</g>
<path d="M264.137 183.231C265.83 183.231 267.201 183.002 267.201 182.72C267.201 182.438 265.83 182.209 264.137 182.209C262.445 182.209 261.073 182.438 261.073 182.72C261.073 183.002 262.445 183.231 264.137 183.231Z" fill="#635252"/>
<path d="M312.146 443.191C312.146 443.191 311.124 442.17 309.592 439.616C308.06 437.573 306.017 434.509 303.463 430.934C301.42 427.359 299.377 424.294 298.356 421.741C297.334 419.187 296.313 417.655 296.313 417.655C296.313 417.655 297.334 419.187 298.867 421.23C300.399 423.273 301.931 426.848 304.485 429.912C306.528 433.488 308.57 436.552 310.103 438.595C311.124 442.17 312.146 443.191 312.146 443.191Z" fill="#E08F8D"/>
<path d="M310.103 443.191C310.103 443.191 309.592 443.191 309.081 443.191C308.57 443.191 307.549 442.681 306.528 442.17C304.485 441.148 301.931 438.595 299.888 436.041C297.845 433.488 295.802 430.934 294.27 428.891C292.738 426.848 292.227 425.827 292.227 425.827C292.227 425.827 293.249 426.848 294.781 428.38C296.313 429.912 298.356 432.466 300.399 435.531C302.442 438.084 304.995 440.638 307.038 441.659C308.57 442.681 310.103 443.191 310.103 443.191Z" fill="#E08F8D"/>
<path d="M334.107 451.363L368.836 363.518L485.793 365.561L453.107 448.809L334.107 451.363Z" fill="#B8ABD6"/>
<path d="M374.454 363.518L338.703 451.363L453.107 448.809L485.793 365.561L374.454 363.518Z" fill="#968ABC"/>
<path d="M422.46 401.392C419.867 398.798 415.178 399.283 411.986 402.473C408.795 405.664 408.309 410.353 410.902 412.946C413.494 415.539 418.183 415.055 421.375 411.864C424.566 408.674 425.052 403.985 422.46 401.392Z" fill="#D7D1E8"/>
<path opacity="0.19" d="M425.625 398.394C421.636 394.405 414.36 395.213 409.373 400.199C404.386 405.185 403.577 412.461 407.566 416.451C411.555 420.441 418.831 419.633 423.818 414.646C428.805 409.66 429.614 402.384 425.625 398.394Z" fill="#D7D1E8"/>
<g opacity="0.43">
<path opacity="0.43" d="M121.133 140.84C140.03 133.179 164.034 143.394 172.206 161.78C180.378 180.677 171.185 204.681 152.798 213.874C134.412 222.557 109.897 214.385 100.193 196.51C90.4895 178.634 98.1504 153.608 115.515 143.394" fill="#EDE6F5"/>
</g>
<path d="M405.609 276.694C406.63 273.63 406.12 269.544 408.673 266.99C412.248 261.883 416.845 263.926 421.441 265.969C427.059 269.033 432.677 270.565 438.806 268.012C447.999 263.926 454.128 248.093 443.403 241.964C440.338 240.432 436.253 242.475 436.763 246.05C436.763 249.115 438.806 252.69 436.763 255.754C434.21 260.351 429.613 258.308 425.527 256.776C420.42 254.222 414.802 253.2 409.184 255.243C401.012 258.308 392.841 271.076 401.012 278.226C403.055 279.248 405.098 278.737 405.609 276.694Z" fill="#CCD0E3"/>
<path d="M423.995 139.308C423.484 144.415 429.102 154.63 434.21 156.673C437.274 157.694 439.317 156.162 441.871 154.63C445.956 152.076 450.042 149.012 453.617 146.458C455.66 144.926 456.682 142.372 455.149 139.819C452.085 134.711 448.51 129.604 445.446 124.497C443.913 122.454 440.849 120.922 438.806 122.965C434.72 126.029 429.613 128.583 426.038 132.158C422.463 136.244 427.059 141.351 431.656 139.308C435.742 137.265 439.828 134.201 443.403 131.136C441.36 130.626 438.806 130.115 436.763 129.604C439.828 134.711 443.403 139.819 446.467 144.926C446.978 142.883 447.489 140.329 447.999 138.287C445.446 139.819 442.892 141.862 440.338 143.394C439.317 144.415 437.785 145.437 436.763 145.947C436.253 146.458 435.742 146.458 435.231 146.969C434.21 147.48 434.21 147.99 435.742 147.48C433.188 143.905 429.102 138.797 425.017 137.265C425.017 137.265 423.995 138.287 423.995 139.308Z" fill="#EDC483"/>
<path d="M377.519 186.806C371.901 191.913 369.347 200.085 374.965 206.724C380.072 212.853 389.776 214.385 396.416 209.278C411.227 198.042 396.416 174.038 379.562 180.166C376.497 181.188 375.476 186.806 379.562 187.827C383.648 188.338 387.733 188.338 391.308 190.381C395.394 192.935 395.905 197.531 393.351 201.617C386.712 211.321 372.922 197.531 380.583 189.359C381.605 187.316 379.051 184.763 377.519 186.806Z" fill="#8AA9FC"/>
<path d="M496.008 232.771C493.965 241.964 492.433 251.158 490.9 260.351C490.39 263.926 492.943 265.969 496.008 265.458C504.69 264.436 513.373 263.415 522.055 260.861C524.609 260.351 525.63 257.286 524.609 254.733C521.544 249.625 518.991 244.518 515.415 239.922C511.84 235.325 508.265 230.218 503.158 228.685C499.072 227.153 496.519 231.75 498.051 235.325C500.094 239.411 505.201 242.475 508.265 246.05C511.84 250.136 515.415 254.222 517.969 259.329C518.991 257.286 520.523 255.243 521.544 253.2C512.351 253.711 503.158 255.754 493.965 257.286C496.008 258.818 497.54 259.84 499.583 261.372C500.604 252.179 501.626 242.475 501.626 233.282C501.626 230.728 497.029 229.707 496.008 232.771Z" fill="#E3707F"/>
<path d="M475.579 213.364C478.132 204.681 480.175 193.956 480.175 184.763C480.175 180.166 473.025 179.145 472.004 183.741C469.961 192.935 469.45 203.149 469.961 212.342C470.471 215.407 474.557 216.428 475.579 213.364Z" fill="#E8947E"/>
<path d="M507.755 172.505C507.244 171.995 507.244 171.995 507.755 172.505C502.647 167.909 496.008 174.548 500.094 179.145L500.604 179.656C504.69 184.252 512.351 176.591 507.755 172.505Z" fill="#E8947E"/>
<defs>
<linearGradient id="paint0_linear_3_1744" x1="451.115" y1="82.5921" x2="568.314" y2="16.1448" gradientUnits="userSpaceOnUse">
<stop offset="0.0500413" stop-color="#6BC1CD"/>
<stop offset="1" stop-color="#A8EBA4"/>
</linearGradient>
</defs>
</svg>
