<svg width="1387" height="992" viewBox="0 0 1387 992" fill="none" xmlns="http://www.w3.org/2000/svg">
<path d="M500.644 798.206H676.992" stroke="#CED5E5" stroke-width="3" stroke-linecap="round" stroke-linejoin="round"/>
<path d="M871.006 798.206H1133.12" stroke="#CED5E5" stroke-width="3" stroke-linecap="round" stroke-linejoin="round"/>
<path d="M709.14 798.206H844.538" stroke="#CED5E5" stroke-width="3" stroke-linecap="round" stroke-linejoin="round"/>
<path d="M1149.73 798.206H1197.73" stroke="#CED5E5" stroke-width="3" stroke-linecap="round" stroke-linejoin="round"/>
<path d="M1222.14 798.206H1350.36" stroke="#CED5E5" stroke-width="3" stroke-linecap="round" stroke-linejoin="round"/>
<path d="M501.393 303.889C507.573 247.549 546.9 192.611 595.903 172.726C648.214 151.439 676.492 184.389 753.024 193.312C910.52 211.667 1007.4 97.5843 1051.35 139.138C1085.18 171.133 1027.19 238.244 1063.02 294.138C1110.21 367.687 1246.3 307.076 1315.71 380.879C1367.78 436.2 1380.7 539.384 1342.25 578.134C1294.87 625.871 1208.91 536.07 1078.94 569.467C970.822 597.254 976.19 673.352 857.023 721.216C725.308 774.115 555.702 746.646 524.74 673.543C502.954 622.11 567.75 590.499 559.759 491.457C552.456 399.617 493.091 380.37 501.393 303.889Z" fill="#F1F2F7"/>
<path d="M686.668 691.452C686.668 691.452 678.178 468.003 677.117 447.8C676.056 427.532 680.862 412.874 718.504 412.364C756.208 411.79 778.993 418.482 778.993 418.482C778.993 418.482 795.91 416.698 794.911 524.535C793.912 632.372 785.485 662.199 785.485 662.199L837.984 662.964C850.656 663.155 860.831 673.671 860.831 686.609V691.707C860.831 704.773 850.468 715.352 837.671 715.352H709.952C698.154 715.352 688.291 706.302 686.98 694.384L686.668 691.452Z" fill="#FFC933"/>
<path d="M698.965 414.403L710.763 667.042L839.107 669.209" stroke="#FEAC00" stroke-width="4" stroke-linecap="round" stroke-linejoin="round"/>
<path d="M808.894 327.789C808.894 327.789 807.833 301.404 788.356 300.703C768.88 300.002 769.629 315.871 763.949 319.504C758.268 323.137 744.16 324.921 743.099 337.923C742.038 350.925 744.847 358.127 738.854 363.225C732.861 368.324 723.31 372.467 724.497 382.537C725.683 392.606 735.296 396.813 728.741 406.946C722.187 417.08 714.384 418.673 714.946 427.724C715.507 436.774 723.81 451.942 723.81 451.942H761.951C761.951 451.942 820.63 443.466 824.874 436.965C829.119 430.464 838.733 417.972 840.356 409.496C841.979 401.019 843.914 387.571 841.542 375.271C840.106 367.942 832.678 354.749 832.178 341.174C831.554 327.598 813.139 321.671 808.894 327.789Z" fill="#ED85C3"/>
<path d="M710.763 667.043L756.083 643.844" stroke="#FEAC00" stroke-width="4" stroke-linecap="round" stroke-linejoin="round"/>
<path d="M1188.37 461.885C1188.37 461.885 1173.58 436.71 1171.83 420.075C1170.08 403.441 1172.76 408.03 1177.2 413.957C1181.57 419.82 1190.06 445.951 1188.37 461.885Z" fill="#52CB96"/>
<path d="M1191.8 439.323C1191.8 439.323 1201.35 416.188 1213.53 409.559C1225.7 402.931 1231.32 400.254 1234.5 402.676C1237.68 405.098 1223.64 418.227 1216.21 423.899C1208.78 429.572 1191.8 439.323 1191.8 439.323Z" fill="#52CB96"/>
<path d="M951.658 625.042C951.658 625.042 1000.54 634.921 1001.97 648.687C1003.41 662.454 953.468 841.29 953.468 841.29C953.468 841.29 967.451 865.508 977.189 870.735C977.189 870.735 986.74 877.235 985.679 881.187C984.618 885.138 972.57 884.629 963.019 881.187C953.468 877.745 932.743 858.944 933.492 854.419C934.179 849.894 936.863 837.593 937.238 832.75C937.612 827.842 941.857 705.856 958.337 683.932L920.446 677.304C920.383 677.304 920.383 634.73 951.658 625.042Z" fill="#FFDFD7"/>
<path d="M939.672 837.721C939.672 837.721 932.743 844.03 932.618 854.164C932.494 864.297 932.618 881.505 932.618 881.505H936.114L937.425 864.616C937.425 864.616 943.792 866.528 945.54 871.818C947.288 877.108 953.094 884.565 966.764 887.241C980.435 889.918 988.488 890.173 989.424 885.776C990.361 881.378 987.489 873.475 977.439 870.798C977.439 870.798 959.835 871.499 950.409 860.282C940.983 849.065 939.672 837.721 939.672 837.721Z" fill="#37B37F"/>
<path d="M932.494 646.967C932.494 646.967 984.493 654.806 985.866 668.508C987.302 682.211 937.363 856.012 937.363 856.012C937.363 856.012 951.346 880.231 961.084 885.457C961.084 885.457 970.635 891.958 969.573 895.909C968.512 899.861 956.464 899.351 946.914 895.909C937.363 892.468 916.638 873.666 917.387 869.141C918.136 864.616 920.758 852.316 921.132 847.472C921.507 842.628 925.752 720.579 942.232 698.654L904.34 692.026C904.34 692.09 901.219 656.654 932.494 646.967Z" fill="#FFDFD7"/>
<path d="M963.893 567.873C963.893 567.873 998.975 570.869 1007.28 592.028H960.147C960.147 592.028 956.714 581.512 958.15 575.84C959.586 570.168 963.893 567.873 963.893 567.873Z" fill="#FFDFD7"/>
<path d="M813.326 424.409C813.326 424.409 849.844 468.704 863.515 498.34C877.186 527.976 891.356 552.896 891.356 552.896C891.356 552.896 935.24 557.612 964.954 565.515C964.954 565.515 956.901 581.257 960.46 593.367L858.583 582.532L813.326 441.936V426.959V424.409Z" fill="#FFB3DA"/>
<path d="M789.979 418.482C789.979 418.482 773.749 434.479 769.504 439.323C765.26 444.167 752.525 464.88 748.53 476.416C744.535 487.952 724.934 570.359 726.369 579.537C727.805 588.714 731.551 592.092 731.551 592.092H863.577C863.577 592.092 856.399 545.694 851.779 531.609C847.16 517.524 831.991 462.968 831.991 462.968C831.991 462.968 821.566 429.062 810.767 422.242L789.979 418.482Z" fill="#FFB3DA"/>
<path d="M782.364 482.789L767.507 554.362" stroke="#ED85C3" stroke-width="3" stroke-linecap="round" stroke-linejoin="round"/>
<path d="M834.363 471.508L860.082 571.251" stroke="#ED85C3" stroke-width="3" stroke-linecap="round" stroke-linejoin="round"/>
<path d="M846.598 570.486C846.598 570.486 863.39 569.658 876.936 575.713C890.545 581.831 896.412 587.121 896.412 592.028H847.222C847.285 592.028 841.542 583.998 846.598 570.486Z" fill="#FFDFD7"/>
<path d="M846.598 570.486L757.144 552.705" stroke="#ED85C3" stroke-width="3" stroke-linecap="round" stroke-linejoin="round"/>
<path d="M759.392 614.909C759.392 614.909 751.589 625.998 751.838 641.422C752.088 656.845 756.083 662.836 792.414 669.337C828.745 675.838 902.842 694.894 902.842 694.894C902.842 694.894 934.242 636.387 954.28 623.13L759.392 614.909Z" fill="#37B37F"/>
<path d="M647.403 623.321L577.862 899.032" stroke="#283444" stroke-width="7" stroke-linecap="round" stroke-linejoin="round"/>
<path d="M1199.98 623.321L1269.52 899.032" stroke="#283444" stroke-width="7" stroke-linecap="round" stroke-linejoin="round"/>
<path d="M1138.49 418.865C1139.43 419.821 1158.53 471.381 1164.21 494.962" stroke="#52CB96" stroke-width="3" stroke-linecap="round" stroke-linejoin="round"/>
<path d="M1167.77 450.476L1177.13 494.962" stroke="#52CB96" stroke-width="3" stroke-linecap="round" stroke-linejoin="round"/>
<path d="M1199.29 400.573C1199.29 400.573 1191.49 439.259 1189.37 454.045C1187.25 468.831 1185.12 494.962 1185.12 494.962" stroke="#52CB96" stroke-width="3" stroke-linecap="round" stroke-linejoin="round"/>
<path d="M1199.98 494.962C1199.98 494.962 1209.72 467.238 1223.14 450.476" stroke="#52CB96" stroke-width="3" stroke-linecap="round" stroke-linejoin="round"/>
<path d="M1166.08 451.496C1172.67 451.496 1178.01 446.046 1178.01 439.323C1178.01 432.6 1172.67 427.15 1166.08 427.15C1159.5 427.15 1154.16 432.6 1154.16 439.323C1154.16 446.046 1159.5 451.496 1166.08 451.496Z" fill="#FFB3DA"/>
<path d="M1230.38 454.428C1237.14 454.428 1242.62 448.835 1242.62 441.936C1242.62 435.037 1237.14 429.444 1230.38 429.444C1223.62 429.444 1218.15 435.037 1218.15 441.936C1218.15 448.835 1223.62 454.428 1230.38 454.428Z" fill="#FFB3DA"/>
<path d="M1135.43 413.766C1135.43 413.766 1120.39 409.496 1120.39 399.808C1120.39 390.121 1128.63 397.832 1128.63 397.832C1128.63 397.832 1136.12 405.608 1138.24 411.471C1138.24 411.471 1139.43 392.925 1146.11 390.057C1152.79 387.189 1155.47 393.817 1155.29 395.538C1155.1 397.259 1154.66 401.083 1150.92 404.843C1147.17 408.603 1140.93 412.173 1140.93 412.173C1140.93 412.173 1152.16 410.898 1156.85 414.467C1161.59 418.036 1162.28 422.051 1155.91 421.605C1149.54 421.159 1138.43 418.291 1138.43 418.291C1138.43 418.291 1133.31 424.919 1127.07 427.15C1120.83 429.381 1118.14 424.473 1119.95 421.987C1121.76 419.438 1123.14 414.212 1135.43 413.766Z" fill="#FFC933"/>
<path d="M1201.42 402.166C1200.11 402.931 1198.55 402.804 1197.36 401.848C1192.37 397.896 1179.82 385.596 1185.12 365.838C1185.12 365.838 1186.56 360.803 1189.43 360.867C1192.37 360.931 1194.67 376.036 1194.67 376.036C1194.67 376.036 1196.61 363.225 1199.98 360.867C1203.35 358.509 1204.29 360.166 1205.29 363.034C1206.29 365.902 1205.85 378.394 1205.85 378.394C1205.85 378.394 1210.72 363.48 1213.65 361.249C1216.59 359.019 1218.46 375.526 1217.08 380.37C1215.84 385.022 1212.28 395.984 1201.42 402.166Z" fill="#FFB3DA"/>
<path d="M1155.72 466.41C1155.72 466.41 1140.24 462.904 1130.25 453.854C1120.27 444.804 1120.95 442.637 1122.45 441.235C1124.01 439.769 1147.61 451.815 1155.72 466.41Z" fill="#52CB96"/>
<path d="M1206.97 478.009C1206.97 478.009 1200.92 456.913 1204.23 447.035C1207.53 437.156 1210.84 465.964 1208.72 474.376L1206.97 478.009Z" fill="#52CB96"/>
<path d="M1212.4 467.111C1212.4 467.111 1222.27 457.742 1233.81 458.252C1245.36 458.762 1235.13 467.302 1230.38 468.003C1225.57 468.704 1210.47 470.871 1210.47 470.871L1212.4 467.111Z" fill="#52CB96"/>
<path d="M1089.68 523.005H937.051L945.041 404.015H1097.67L1089.68 523.005Z" fill="#CED5E5"/>
<path d="M1037.8 458.316C1036.37 451.624 1030.56 446.907 1023.88 446.907C1015.02 446.907 1008.28 455.129 1009.9 464.052L1030.94 581.257L1007.59 581.576L1005.9 592.028H1066.27L1037.8 458.316ZM1027.88 483.108C1024.57 483.745 1021.2 480.176 1020.32 475.141C1019.45 470.106 1021.39 465.581 1024.69 465.008C1028 464.37 1031.37 467.939 1032.25 472.974C1033.12 478.009 1031.19 482.471 1027.88 483.108Z" fill="#283444"/>
<path d="M1271.14 592.028H576.239V623.321H1271.14V592.028Z" fill="#CED5E5"/>
<path d="M775.684 809.997V715.289H763.262V809.997L709.14 837.083V844.668L769.442 825.165L829.806 844.668V837.083L775.684 809.997Z" fill="#CED5E5"/>
<path d="M775.684 807.957L807.146 811.335V819.875L775.684 818.473V807.957Z" fill="#CED5E5"/>
<path d="M717.755 863.278C722.512 863.278 726.369 859.34 726.369 854.483C726.369 849.625 722.512 845.687 717.755 845.687C712.997 845.687 709.14 849.625 709.14 854.483C709.14 859.34 712.997 863.278 717.755 863.278Z" fill="#283444"/>
<path d="M821.191 863.278C825.949 863.278 829.806 859.34 829.806 854.483C829.806 849.625 825.949 845.687 821.191 845.687C816.434 845.687 812.577 849.625 812.577 854.483C812.577 859.34 816.434 863.278 821.191 863.278Z" fill="#283444"/>
<path d="M920.758 850.722C920.758 850.722 913.829 857.032 913.704 867.165C913.579 877.299 913.704 894.507 913.704 894.507H917.2L918.511 877.618C918.511 877.618 924.878 879.53 926.626 884.82C928.374 890.109 934.179 897.566 947.85 900.243C961.521 902.92 969.573 903.175 970.51 898.777C971.446 894.38 968.575 886.477 958.524 883.8C958.524 883.8 940.921 884.501 931.495 873.284C922.069 862.067 920.758 850.722 920.758 850.722Z" fill="#37B37F"/>
<path d="M1219.21 494.962H1178.88H1138.56L1151.73 518.544C1156.66 527.403 1156.28 538.365 1150.73 546.841C1144.99 555.7 1144.36 567.045 1149.17 576.414C1154.1 585.974 1163.77 591.965 1174.39 591.965H1178.88H1183.38C1193.99 591.965 1203.66 585.974 1208.6 576.414C1213.4 566.981 1212.84 555.637 1207.03 546.841C1201.48 538.365 1201.1 527.403 1206.04 518.544L1219.21 494.962Z" fill="#FE8163"/>
<path d="M775.684 809.997L829.806 837.083" stroke="white" stroke-width="3" stroke-linecap="round" stroke-linejoin="round"/>
<path d="M932.494 646.967C932.494 646.967 984.493 654.806 985.866 668.508C987.052 679.98 952.469 802.922 941.046 843.265" stroke="white" stroke-width="3" stroke-linecap="round" stroke-linejoin="round"/>
<path d="M789.979 418.482C789.979 418.482 795.41 409.305 793.288 402.612C791.165 395.857 787.607 394.263 789.605 386.169C791.602 378.075 790.604 373.614 788.981 370.555C787.42 367.495 783.425 358.636 786.608 348.758C789.792 338.879 807.084 337.286 816.51 341.556C816.51 341.556 824.999 354.43 825.249 373.486C825.499 392.543 818.382 402.421 815.698 404.078C813.014 405.735 803.9 402.166 803.9 402.166C803.9 402.166 807.895 418.291 810.642 422.306C810.704 422.179 800.092 424.983 789.979 418.482Z" fill="#FFDFD7"/>
<path d="M1007.59 581.576L1045.86 581.257" stroke="#CED5E5" stroke-width="3" stroke-linecap="round" stroke-linejoin="round"/>
<path d="M1082.12 90H920.383V295.986H1082.12V90Z" fill="#CED5E5" stroke="white" stroke-width="3" stroke-linecap="round" stroke-linejoin="round"/>
<path d="M1064.77 107.718H937.737V278.269H1064.77V107.718Z" fill="#F1F2F7"/>
<path d="M937.737 205.485C950.472 205.485 950.472 208.034 963.144 208.034C975.878 208.034 975.878 205.485 988.55 205.485C1001.28 205.485 1001.28 208.034 1013.96 208.034C1026.69 208.034 1026.69 205.485 1039.36 205.485C1052.1 205.485 1052.1 208.034 1064.77 208.034" stroke="white" stroke-width="3" stroke-linecap="round" stroke-linejoin="round"/>
<path d="M937.737 214.726C950.472 214.726 950.472 217.276 963.144 217.276C975.878 217.276 975.878 214.726 988.55 214.726C1001.28 214.726 1001.28 217.276 1013.96 217.276C1026.69 217.276 1026.69 214.726 1039.36 214.726C1052.1 214.726 1052.1 217.276 1064.77 217.276" stroke="white" stroke-width="3" stroke-linecap="round" stroke-linejoin="round"/>
<path d="M937.737 223.904C950.472 223.904 950.472 226.453 963.144 226.453C975.878 226.453 975.878 223.904 988.55 223.904C1001.28 223.904 1001.28 226.453 1013.96 226.453C1026.69 226.453 1026.69 223.904 1039.36 223.904C1052.1 223.904 1052.1 226.453 1064.77 226.453" stroke="white" stroke-width="3" stroke-linecap="round" stroke-linejoin="round"/>
<path d="M937.737 233.145C950.472 233.145 950.472 235.695 963.144 235.695C975.878 235.695 975.878 233.145 988.55 233.145C1001.28 233.145 1001.28 235.695 1013.96 235.695C1026.69 235.695 1026.69 233.145 1039.36 233.145C1052.1 233.145 1052.1 235.695 1064.77 235.695" stroke="white" stroke-width="3" stroke-linecap="round" stroke-linejoin="round"/>
<path d="M937.737 242.387C950.472 242.387 950.472 244.936 963.144 244.936C975.878 244.936 975.878 242.387 988.55 242.387C1001.28 242.387 1001.28 244.936 1013.96 244.936C1026.69 244.936 1026.69 242.387 1039.36 242.387C1052.1 242.387 1052.1 244.936 1064.77 244.936" stroke="white" stroke-width="3" stroke-linecap="round" stroke-linejoin="round"/>
<path d="M937.737 251.564C950.472 251.564 950.472 254.114 963.144 254.114C975.878 254.114 975.878 251.564 988.55 251.564C1001.28 251.564 1001.28 254.114 1013.96 254.114C1026.69 254.114 1026.69 251.564 1039.36 251.564C1052.1 251.564 1052.1 254.114 1064.77 254.114" stroke="white" stroke-width="3" stroke-linecap="round" stroke-linejoin="round"/>
<path d="M937.737 260.806C950.472 260.806 950.472 263.355 963.144 263.355C975.878 263.355 975.878 260.806 988.55 260.806C1001.28 260.806 1001.28 263.355 1013.96 263.355C1026.69 263.355 1026.69 260.806 1039.36 260.806C1052.1 260.806 1052.1 263.355 1064.77 263.355" stroke="white" stroke-width="3" stroke-linecap="round" stroke-linejoin="round"/>
<path d="M937.737 269.983C950.472 269.983 950.472 272.533 963.144 272.533C975.878 272.533 975.878 269.983 988.55 269.983C1001.28 269.983 1001.28 272.533 1013.96 272.533C1026.69 272.533 1026.69 269.983 1039.36 269.983C1052.1 269.983 1052.1 272.533 1064.77 272.533" stroke="white" stroke-width="3" stroke-linecap="round" stroke-linejoin="round"/>
<path d="M1019.76 151.63C1025.62 151.63 1030.37 146.779 1030.37 140.796C1030.37 134.812 1025.62 129.961 1019.76 129.961C1013.9 129.961 1009.15 134.812 1009.15 140.796C1009.15 146.779 1013.9 151.63 1019.76 151.63Z" fill="white"/>
<path d="M1153.79 136.739C1152.82 133.877 1140.64 124.147 1148.1 122.512L1154.22 130.657L1182.34 102.573L1185.17 105.398L1153.79 136.739Z" fill="#8D8D92"/>
<path d="M1153.79 232.234C1152.82 229.372 1140.64 219.642 1148.1 218.006L1154.22 226.151L1182.34 198.068L1185.17 200.893L1153.79 232.234Z" fill="#8D8D92"/>
<path d="M1153.79 329.092C1152.82 326.23 1140.64 316.501 1148.1 314.866L1154.22 323.011L1182.34 294.927L1185.17 297.751L1153.79 329.092Z" fill="#8D8D92"/>
<path d="M1127.89 250.785C1132.68 250.785 1136.57 246.904 1136.57 242.118C1136.57 237.332 1132.68 233.452 1127.89 233.452C1123.1 233.452 1119.22 237.332 1119.22 242.118C1119.22 246.904 1123.1 250.785 1127.89 250.785Z" fill="#3F3D56"/>
<path d="M1127.89 156.324C1132.68 156.324 1136.57 152.445 1136.57 147.658C1136.57 142.872 1132.68 138.992 1127.89 138.992C1123.1 138.992 1119.22 142.872 1119.22 147.658C1119.22 152.445 1123.1 156.324 1127.89 156.324Z" fill="#3F3D56"/>
<path d="M1350.47 127.726H1210.76V129.459H1350.47V127.726Z" fill="#3F3D56"/>
<path d="M1132.23 351.48C1137.02 351.48 1140.91 347.6 1140.91 342.814C1140.91 338.027 1137.02 334.148 1132.23 334.148C1127.44 334.148 1123.55 338.027 1123.55 342.814C1123.55 347.6 1127.44 351.48 1132.23 351.48Z" fill="#3F3D56"/>
<path d="M1350.47 223.22H1210.76V224.954H1350.47V223.22Z" fill="#3F3D56"/>
<path d="M1350.47 320.081H1210.76V321.814H1350.47V320.081Z" fill="#3F3D56"/>
<path d="M1175.71 342.006H1132.32V297.808H1161.82V299.541H1134.05V340.272H1173.97V320.34H1175.71V342.006Z" fill="#3F3D56"/>
<path d="M1175.71 244.945H1132.32V200.749H1161.82V202.481H1134.05V243.212H1173.97V223.28H1175.71V244.945Z" fill="#3F3D56"/>
<path d="M1175.71 146.151H1132.32V101.954H1161.82V103.688H1134.05V144.418H1173.97V124.486H1175.71V146.151Z" fill="#3F3D56"/>
<path d="M24.0161 725.127C29.6235 667.967 63.5144 610.907 117.439 590.95C97.513 650.153 99.1968 714.486 122.193 772.569C131.144 794.936 143.43 818.884 136.161 841.852C131.637 856.142 119.95 867.29 106.747 874.414C93.5429 881.539 78.7767 885.156 64.1957 888.702L61.3719 891.161C36.7223 839.27 18.4088 782.288 24.0161 725.127Z" fill="#F0F0F0"/>
<path d="M118.008 592.012C87.562 627.902 68.3985 673.74 65.0481 720.729C64.3237 730.889 64.4741 741.257 66.9534 751.187C69.4441 760.849 74.4795 769.668 81.5363 776.727C87.984 783.443 95.3585 789.565 100.06 797.729C105.015 806.333 105.456 816.245 102.461 825.6C98.7972 837.046 91.2341 846.495 83.5168 855.477C74.9476 865.452 65.888 875.676 62.4751 888.693C62.0616 890.269 59.6355 889.537 60.0485 887.962C65.9869 865.315 87.5001 851.98 97.3904 831.465C102.005 821.893 103.76 810.872 98.9423 801.02C94.7283 792.404 87.1295 786.083 80.5422 779.341C73.6251 772.262 68.2587 764.436 65.3513 754.899C62.3762 745.144 61.8195 734.76 62.2806 724.627C63.4979 701.656 68.3233 679.02 76.5826 657.547C85.8703 632.987 99.2983 610.196 116.282 590.158C117.333 588.919 119.053 590.781 118.008 592.012Z" fill="white"/>
<path d="M65.3303 705.398C57.4519 703.704 50.4326 699.267 45.5263 692.881C40.6202 686.496 38.1468 678.576 38.5477 670.536C38.5671 670.209 38.7131 669.901 38.9549 669.678C39.1967 669.457 39.5157 669.336 39.8442 669.344C40.1728 669.352 40.4856 669.487 40.7166 669.721C40.9474 669.955 41.0786 670.268 41.0823 670.596C40.6951 678.082 42.9997 685.459 47.5806 691.397C52.1613 697.334 58.7164 701.44 66.0621 702.974C67.6588 703.31 66.9178 705.732 65.3303 705.398Z" fill="white"/>
<path d="M77.8168 773.754C91.7379 764.953 101.826 751.235 106.069 735.337C106.488 733.76 108.914 734.493 108.496 736.066C104.049 752.604 93.5218 766.857 79.0153 775.984C77.6322 776.852 76.4416 774.617 77.8168 773.754Z" fill="white"/>
<path d="M88.2847 635.324C91.196 636.614 94.3829 637.161 97.5592 636.917C100.736 636.673 103.801 635.645 106.48 633.925C107.852 633.039 109.042 635.276 107.679 636.156C104.71 638.042 101.322 639.173 97.8137 639.451C94.3051 639.728 90.782 639.144 87.5529 637.747C87.2364 637.641 86.974 637.419 86.8158 637.126C86.6589 636.833 86.6194 636.492 86.7051 636.17C86.8026 635.849 87.0241 635.58 87.3195 635.422C87.6162 635.264 87.9616 635.229 88.2847 635.324Z" fill="white"/>
<path d="M285.942 688.397C285.102 688.974 284.261 689.552 283.42 690.151C272.158 697.974 261.55 706.698 251.704 716.237C250.93 716.963 250.158 717.71 249.407 718.456C225.928 741.69 206.972 769.075 193.504 799.221C188.154 811.221 183.728 823.61 180.262 836.282C175.475 853.781 171.679 873.136 161.678 887.608C160.652 889.13 159.532 890.586 158.325 891.969L64.5966 894.41C64.3809 894.309 64.1645 894.229 63.9477 894.127L60.2098 894.396C60.343 893.73 60.4953 893.042 60.6285 892.376C60.704 891.99 60.8004 891.603 60.8761 891.216C60.933 890.958 60.9912 890.7 61.0277 890.464C61.0464 890.378 61.0661 890.291 61.0853 890.227C61.122 889.991 61.1812 889.775 61.2184 889.56C62.0593 885.714 62.9289 881.865 63.827 878.017C63.8264 877.995 63.8264 877.995 63.8468 877.974C70.7652 848.664 80.1927 819.674 93.7275 793.035C94.1349 792.234 94.541 791.411 94.992 790.608C101.159 778.635 108.296 767.184 116.332 756.372C120.751 750.466 125.466 744.786 130.461 739.356C143.391 725.349 158.448 713.462 175.077 704.128C208.232 685.526 246.974 677.722 283.184 687.614C284.109 687.868 285.015 688.122 285.942 688.397Z" fill="#F0F0F0"/>
<path d="M285.763 689.59C239.816 699.939 196.883 725.015 165.879 760.52C159.177 768.195 153.046 776.565 149.039 785.984C145.203 795.196 143.907 805.265 145.286 815.145C146.386 824.384 148.583 833.707 147.416 843.052C146.184 852.901 140.561 861.08 132.531 866.749C122.705 873.685 110.97 876.682 99.392 879.214C86.5376 882.024 73.1413 884.742 62.5687 893.082C61.2876 894.093 59.7925 892.048 61.0715 891.039C79.465 876.529 104.682 878.817 124.947 868.383C134.402 863.515 142.446 855.771 144.539 845.007C146.369 835.594 144.111 825.979 142.917 816.635C141.662 806.823 142.095 797.347 145.522 787.985C149.028 778.407 154.844 769.781 161.321 761.967C176.14 744.358 193.639 729.187 213.179 717.006C235.401 702.982 259.861 692.858 285.502 687.072C287.089 686.714 287.34 689.236 285.763 689.59Z" fill="white"/>
<path d="M175.346 748.448C170.077 742.358 167.146 734.595 167.079 726.545C167.012 718.497 169.811 710.686 174.978 704.508C176.028 703.261 178.016 704.832 176.965 706.081C172.143 711.825 169.537 719.1 169.614 726.596C169.692 734.091 172.451 741.311 177.391 746.954C178.463 748.181 176.413 749.669 175.346 748.448Z" fill="white"/>
<path d="M144.11 810.535C160.53 811.878 176.854 806.992 189.827 796.848C191.112 795.842 192.607 797.886 191.324 798.891C177.805 809.421 160.807 814.471 143.722 813.036C142.094 812.898 142.49 810.397 144.11 810.535Z" fill="white"/>
<path d="M235.917 706.299C237.465 709.079 239.679 711.434 242.362 713.148C245.045 714.863 248.113 715.886 251.29 716.124C252.918 716.241 252.52 718.742 250.902 718.625C247.393 718.346 244.007 717.212 241.038 715.324C238.07 713.437 235.61 710.85 233.872 707.794C233.685 707.52 233.608 707.184 233.658 706.855C233.71 706.527 233.884 706.23 234.146 706.025C234.418 705.828 234.757 705.746 235.089 705.798C235.42 705.849 235.718 706.029 235.917 706.299Z" fill="white"/>
<path d="M446.698 389.895C446.698 389.895 429.979 460.394 450.413 460.394C470.847 460.394 519.144 380.62 519.144 380.62L502.427 360.212L472.418 401.821L470.847 380.62L446.698 389.895Z" fill="#A0616A"/>
<path d="M514.689 383.684C523.671 383.684 530.953 376.412 530.953 367.441C530.953 358.469 523.671 351.198 514.689 351.198C505.706 351.198 498.424 358.469 498.424 367.441C498.424 376.412 505.706 383.684 514.689 383.684Z" fill="#A0616A"/>
<path d="M432.523 870.049L454.171 870.048L464.471 786.648L432.518 786.649L432.523 870.049Z" fill="#A0616A"/>
<path d="M431.759 892.604L498.335 892.601V891.761C498.334 884.898 495.605 878.315 490.744 873.462C485.886 868.608 479.294 865.881 472.422 865.881H472.421L460.26 856.667L437.569 865.883H431.759V892.604Z" fill="#2F2E41"/>
<path d="M199.643 843.073L219.013 852.726L265.52 782.699L236.929 768.45L199.643 843.073Z" fill="#A0616A"/>
<path d="M188.875 862.915L248.445 892.604L248.821 891.852C251.889 885.71 252.389 878.603 250.212 872.093C248.034 865.584 243.356 860.205 237.206 857.139L237.205 857.138L230.445 843.47L206.022 841.596L200.823 839.005L188.875 862.915Z" fill="#2F2E41"/>
<path d="M292.549 517.789C292.549 517.789 283.898 621.683 282.04 643.946C280.767 657.902 277.643 671.626 272.753 684.761C272.753 684.761 269.037 692.182 269.037 699.602L226.931 776.026C226.931 776.026 214.063 785.472 215.921 792.894C217.779 800.314 208.164 804.765 208.164 804.765L252.505 813.301C252.505 813.301 250.647 807.734 256.221 805.88C261.793 804.025 266.23 787.933 266.23 787.933L328.48 686.615L373.064 593.856C373.064 593.856 399.071 677.34 404.643 686.615C404.643 686.615 425.077 790.508 428.793 799.785C432.507 809.06 434.365 809.06 432.507 812.771C430.65 816.482 430.65 820.191 432.507 822.047C434.365 823.902 469.66 822.047 469.66 822.047L460.372 690.326L443.653 532.633L358.203 506.66L292.549 517.789Z" fill="#2F2E41"/>
<path d="M376.213 269.769C397.758 269.769 415.223 252.326 415.223 230.81C415.223 209.293 397.758 191.85 376.213 191.85C354.668 191.85 337.203 209.293 337.203 230.81C337.203 252.326 354.668 269.769 376.213 269.769Z" fill="#A0616A"/>
<path d="M447.37 326.704L400.931 298.605C400.931 298.605 399.644 281.156 386.412 280.334C379.769 279.922 369.801 279.293 354.841 278.329C351.679 278.125 349.545 295.4 345.922 295.166L296.903 308.152L304.333 434.307C304.333 434.307 293.187 484.397 296.903 493.674C300.617 502.95 287.614 506.661 291.329 508.515C295.045 510.37 291.329 523.357 291.329 523.357C291.329 523.357 363.776 560.461 443.654 532.634L436.224 508.515C437.236 505.362 437.426 502.005 436.776 498.759C436.126 495.513 434.657 492.485 432.509 489.964C432.509 489.964 439.94 478.832 430.651 469.555C430.651 469.555 434.367 452.859 425.079 445.438L423.221 419.465L428.793 406.478L447.37 326.704Z" fill="#E6E6E6"/>
<path d="M342.362 253.066L341.272 250.537C341.13 250.21 327.335 217.638 339.563 197.548C345.224 188.246 355.517 182.995 370.155 181.941C393.06 180.287 408.736 185.713 416.76 198.058C418.106 200.15 418.863 202.565 418.95 205.05C419.037 207.535 418.453 209.998 417.259 212.179C416.063 214.361 414.301 216.18 412.158 217.446C410.016 218.713 407.571 219.379 405.082 219.375H404.773L400.565 213.918L400.321 214.449C398.796 217.741 395.297 219.543 391.199 219.148C390.502 219.098 389.885 219.699 389.389 220.985C389.221 221.548 388.906 222.055 388.475 222.454C388.044 222.853 387.514 223.129 386.939 223.252C383.91 223.841 379.595 220.031 377.662 218.133C377.588 218.57 377.42 218.986 377.17 219.352C376.921 219.719 376.596 220.028 376.217 220.258C374.181 221.432 371.012 219.899 370.103 219.411C362.856 220.948 358.166 220.537 356.156 218.19C354.794 227.816 351.87 245.141 348.365 246.102C347.999 246.186 347.614 246.15 347.27 246C346.925 245.849 346.638 245.592 346.451 245.267C345.607 244.172 344.853 243.627 344.382 243.78C343.241 244.142 342.568 247.893 342.471 250.314L342.362 253.066Z" fill="#2F2E41"/>
<path d="M426.938 328.559L445.469 325.553C458.817 338.361 467.91 354.952 471.52 373.085C477.094 402.769 478.952 408.334 478.952 408.334L434.368 419.465L410.219 373.085L426.938 328.559Z" fill="#E6E6E6"/>
<path d="M344.709 367.167L333.258 512.152L625.5 535.175L636.951 390.19L344.709 367.167Z" fill="white"/>
<path d="M375.932 378.402C368.78 373.301 359.699 372.932 356.23 373.006C357.289 376.304 360.578 384.765 367.729 389.868C374.898 394.982 383.968 395.339 387.431 395.268C386.373 391.971 383.085 383.506 375.932 378.402Z" fill="#8D8D92"/>
<path d="M404.146 470.657L357.221 466.96C355.834 466.851 354.439 467.015 353.116 467.444C351.794 467.874 350.569 468.558 349.51 469.461C348.452 470.363 347.583 471.463 346.952 472.701C346.319 473.939 345.938 475.289 345.828 476.673C345.719 478.058 345.884 479.45 346.314 480.772C346.744 482.093 347.429 483.316 348.332 484.372C349.236 485.43 350.338 486.297 351.577 486.928C352.817 487.559 354.168 487.94 355.554 488.049L402.481 491.746C405.28 491.966 408.054 491.067 410.19 489.246C412.326 487.425 413.65 484.831 413.871 482.034C414.092 479.237 413.191 476.467 411.368 474.334C409.544 472.2 406.946 470.877 404.146 470.657Z" fill="#8D8D92"/>
<path d="M625.43 376.098L362.333 355.37C359.272 355.129 356.195 355.492 353.274 356.439C350.355 357.387 347.651 358.899 345.317 360.89C342.983 362.881 341.065 365.312 339.671 368.043C338.277 370.774 337.436 373.754 337.195 376.809L327.076 504.821C326.59 510.996 328.578 517.11 332.605 521.82C336.632 526.529 342.366 529.45 348.547 529.938L611.646 550.668C614.706 550.909 617.784 550.544 620.703 549.597C623.622 548.65 626.327 547.137 628.66 545.146C630.996 543.157 632.914 540.726 634.308 537.993C635.701 535.262 636.543 532.284 636.783 529.227L646.399 407.557L646.593 405.07L646.898 401.203C647.14 398.147 646.776 395.073 645.826 392.158C644.878 389.242 643.365 386.541 641.371 384.209C639.377 381.879 636.943 379.963 634.209 378.571C631.473 377.179 628.49 376.339 625.43 376.098ZM617.661 487.476L615.995 508.566C615.69 512.29 613.921 515.743 611.074 518.17C608.227 520.595 604.535 521.796 600.804 521.512L565.606 518.741C561.875 518.437 558.418 516.671 555.989 513.828C553.561 510.985 552.357 507.297 552.643 503.57L554.31 482.481C554.616 478.757 556.385 475.305 559.232 472.879C562.077 470.453 565.769 469.251 569.501 469.536L604.687 472.308C608.416 472.614 611.873 474.38 614.304 477.222C616.734 480.064 617.942 483.749 617.661 487.476ZM343.499 476.479C343.772 473.066 345.389 469.902 347.996 467.678C350.603 465.455 353.986 464.355 357.404 464.62L404.328 468.319C406.023 468.451 407.676 468.913 409.192 469.682C410.707 470.451 412.057 471.511 413.162 472.8C414.268 474.09 415.108 475.585 415.634 477.2C416.162 478.814 416.365 480.517 416.233 482.209C416.1 483.902 415.636 485.552 414.864 487.065C414.093 488.578 413.03 489.925 411.738 491.028C410.446 492.131 408.948 492.968 407.331 493.494C405.715 494.018 404.01 494.219 402.316 494.086L402.291 494.093L355.367 490.394C353.672 490.26 352.02 489.794 350.507 489.022C348.993 488.249 347.645 487.186 346.543 485.895C345.441 484.601 344.605 483.105 344.081 481.49C343.559 479.874 343.361 478.171 343.499 476.479ZM353.545 372.168L353.223 370.858L354.573 370.734C355.1 370.678 367.583 369.558 377.299 376.49C387.017 383.422 389.995 395.583 390.125 396.092L390.434 397.407L389.087 397.542C387.175 397.683 385.255 397.671 383.346 397.504C377.272 397.148 371.404 395.169 366.358 391.773C356.64 384.841 353.662 372.681 353.545 372.168Z" fill="#8D8D92"/>
<path d="M578.188 501.463L562.938 500.261C561.849 500.178 560.773 500.529 559.944 501.237C559.114 501.945 558.6 502.953 558.514 504.039C558.429 505.126 558.778 506.201 559.486 507.031C560.194 507.861 561.202 508.376 562.289 508.462L577.541 509.665C578.629 509.748 579.705 509.397 580.534 508.689C581.363 507.98 581.878 506.973 581.963 505.887C582.049 504.8 581.7 503.724 580.992 502.895C580.285 502.065 579.276 501.55 578.188 501.463Z" fill="#8D8D92"/>
<path d="M606.343 503.681L591.093 502.48C590.005 502.397 588.929 502.747 588.101 503.456C587.272 504.164 586.759 505.172 586.673 506.258C586.587 507.343 586.936 508.419 587.644 509.248C588.35 510.077 589.358 510.593 590.445 510.681L605.696 511.882C606.783 511.965 607.859 511.615 608.687 510.906C609.517 510.198 610.03 509.191 610.115 508.104C610.201 507.019 609.853 505.943 609.145 505.114C608.438 504.284 607.431 503.769 606.343 503.681Z" fill="#8D8D92"/>
<path d="M579.023 490.92L563.772 489.717C562.685 489.634 561.608 489.986 560.78 490.694C559.952 491.403 559.438 492.41 559.352 493.495C559.266 494.582 559.616 495.657 560.322 496.486C561.029 497.315 562.036 497.83 563.124 497.918L578.374 499.121C579.463 499.204 580.539 498.853 581.369 498.145C582.198 497.437 582.712 496.429 582.798 495.343C582.884 494.256 582.534 493.181 581.826 492.351C581.118 491.521 580.111 491.006 579.023 490.92Z" fill="#8D8D92"/>
<path d="M607.177 493.137L591.927 491.936C590.839 491.852 589.762 492.203 588.933 492.912C588.105 493.62 587.591 494.628 587.505 495.714C587.419 496.8 587.769 497.876 588.475 498.706C589.183 499.534 590.192 500.05 591.28 500.137L606.53 501.34C607.618 501.423 608.695 501.072 609.524 500.364C610.354 499.655 610.867 498.648 610.952 497.562C611.039 496.475 610.69 495.399 609.982 494.57C609.274 493.74 608.265 493.225 607.177 493.137Z" fill="#8D8D92"/>
<path d="M579.855 480.374L564.603 479.173C563.516 479.089 562.44 479.439 561.61 480.148C560.781 480.856 560.267 481.865 560.181 482.95C560.095 484.036 560.445 485.114 561.153 485.942C561.86 486.771 562.868 487.286 563.956 487.375L579.208 488.576C580.294 488.659 581.37 488.308 582.199 487.6C583.027 486.891 583.542 485.884 583.627 484.798C583.713 483.712 583.364 482.637 582.657 481.807C581.949 480.977 580.941 480.463 579.855 480.374Z" fill="#8D8D92"/>
<path d="M608.01 482.592L592.759 481.391C591.672 481.308 590.596 481.66 589.766 482.367C588.938 483.075 588.425 484.083 588.34 485.169C588.253 486.255 588.602 487.33 589.309 488.159C590.017 488.989 591.024 489.504 592.111 489.592L607.362 490.794C608.45 490.877 609.526 490.526 610.354 489.817C611.182 489.109 611.696 488.101 611.782 487.016C611.868 485.93 611.518 484.854 610.811 484.026C610.105 483.196 609.097 482.68 608.01 482.592Z" fill="#8D8D92"/>
<path d="M333.285 417.202L333.09 419.694L641.933 443.923L642.128 441.432L333.285 417.202Z" fill="white"/>
<path d="M646.591 405.072L646.397 407.558L635.649 406.715L521.13 397.732L521.337 395.243L635.842 404.229L646.591 405.072Z" fill="#3F3D56"/>
<path d="M269.041 378.651C269.041 378.651 252.322 449.15 272.755 449.15C293.19 449.15 341.488 369.375 341.488 369.375L324.769 348.967L294.762 390.576L293.19 369.375L269.041 378.651Z" fill="#A0616A"/>
<path d="M337.031 372.438C346.014 372.438 353.297 365.167 353.297 356.195C353.297 347.224 346.014 339.952 337.031 339.952C328.049 339.952 320.767 347.224 320.767 356.195C320.767 365.167 328.049 372.438 337.031 372.438Z" fill="#A0616A"/>
<path d="M310.434 319.283L299.288 308.152C299.288 308.152 276.996 321.139 275.139 334.125C273.281 347.112 263.992 387.927 263.992 387.927L298.359 390.709L309.504 374.013L310.434 319.283Z" fill="#E6E6E6"/>
</svg>
